<?xml version="1.0" standalone="no"?>
<!DOCTYPE svg PUBLIC "-//W3C//DTD SVG 1.1//EN" "http://www.w3.org/Graphics/SVG/1.1/DTD/svg11.dtd" >
<svg xmlns="http://www.w3.org/2000/svg">
<metadata></metadata>
<defs>
<font id="ciria_boldbold" horiz-adv-x="677" >
<font-face units-per-em="2048" ascent="1638" descent="-410" />
<missing-glyph horiz-adv-x="614" />
<glyph horiz-adv-x="2048" />
<glyph horiz-adv-x="2048" />
<glyph unicode="&#xd;" horiz-adv-x="2048" />
<glyph unicode=" "  horiz-adv-x="614" />
<glyph unicode="&#x09;" horiz-adv-x="614" />
<glyph unicode="&#xa0;" horiz-adv-x="614" />
<glyph unicode="!" horiz-adv-x="350" d="M102 315v1020l142 2v-1022h-142zM106 0v188h142v-188h-142z" />
<glyph unicode="&#x22;" horiz-adv-x="442" d="M102 1120v244h105v-244h-105zM236 1120v244h104v-244h-104z" />
<glyph unicode="#" horiz-adv-x="1273" d="M102 633v98h301q0 63 1.5 196t1.5 197h110l-2 -393h238q0 63 1 196t1 197h110l-2 -393h305v-98h-305v-141h309v-99h-311q0 -64 -1 -197.5t-1 -195.5h-110l2 393h-238q0 -64 -1 -197.5t-1 -195.5h-111l2 393h-292l-3 99h297q0 24 -1 69.5t-1 71.5h-299zM512 633 q0 -24 1 -69.5t1 -71.5h238l-2 141h-238z" />
<glyph unicode="$" horiz-adv-x="841" d="M63 1085q-2 120 78 201.5t228 102.5v237h123v-231q107 -3 167.5 -24.5t67.5 -45.5q16 -69 16 -197q0 -13 -17 -19.5t-35.5 -2.5t-22.5 18q-22 85 -63 134t-113 57v-506q309 -153 309 -412q0 -151 -84 -250.5t-225 -132.5v-141h-123v129q-283 0 -291 115q-2 24 23.5 35.5 t60 5t57.5 -28.5q52 -49 150 -49v651q-47 24 -84.5 46.5t-79.5 56t-70.5 68.5t-48.5 82.5t-23 100.5zM219 1116q0 -146 150 -244v437q-71 -19 -110.5 -69t-39.5 -124zM492 94q86 30 118.5 97t32.5 174q0 190 -151 297v-568z" />
<glyph unicode="%" horiz-adv-x="1497" d="M102 961q0 114 29.5 210.5t92 159t145.5 62.5q84 0 146 -63t91 -159t29 -210q0 -176 -70.5 -296t-197.5 -120q-83 0 -144.5 58.5t-91 151.5t-29.5 206zM201 961q0 -91 19.5 -168.5t60.5 -128t96 -50.5h2q79 0 132.5 104.5t53.5 242.5q0 142 -54 252t-134 110 q-55 0 -96 -53.5t-60.5 -134t-19.5 -174.5zM432 0l512 1393h123l-512 -1393h-123zM862 416q0 115 29.5 211t91 158.5t145.5 62.5t146.5 -62.5t91.5 -158.5t29 -211q0 -113 -29.5 -205.5t-91.5 -151.5t-148 -59q-83 0 -144 59t-90.5 152t-29.5 205zM961 416q0 -142 47 -244 t129 -102h2q53 0 96 49.5t66.5 128.5t23.5 168q0 142 -54 252t-134 110q-55 0 -96 -53.5t-60.5 -134t-19.5 -174.5z" />
<glyph unicode="&#x26;" horiz-adv-x="1411" d="M102 395q0 112 76 202.5t189 145.5q-118 162 -162 306q-13 62 -9 117t39.5 102t100.5 69q48 18 118 21.5t143 -11t132.5 -45t89.5 -87.5t12 -130q-20 -76 -92 -170q-100 -124 -215 -202q9 -13 38.5 -53.5t42 -57.5t39 -52.5t45 -57t44.5 -51.5t51.5 -55.5t53.5 -49.5 q103 246 106 493q1 27 28.5 43.5t59.5 16.5q29 0 49 -12t19 -31q-12 -326 -164 -582q71 -59 130.5 -90.5t125.5 -32.5q51 11 74 -4t34 -49q27 -80 -39 -75q-75 5 -313 140q-11 6 -32 18l-19 11q-66 -77 -162 -129.5t-192 -52.5q-111 0 -210.5 46t-165 138t-65.5 211z M229 352q0 -102 88.5 -186t194.5 -84q85 0 159 48t120 120q-68 47 -126.5 111.5t-127 156.5t-105.5 135q-86 -48 -144.5 -131t-58.5 -170zM317 1120q0 -76 37.5 -162.5t96.5 -150.5q83 51 167.5 180t67.5 217q-20 48 -78 69t-127 21q-74 0 -119 -47.5t-45 -126.5z" />
<glyph unicode="'" horiz-adv-x="309" d="M102 1018v244h105v-244h-105z" />
<glyph unicode="(" horiz-adv-x="448" d="M102 408q0 271 42 531.5t120 453.5h121q-164 -412 -164 -940q0 -266 44.5 -532t131.5 -494h-127q-58 152 -104 337q-64 296 -64 644z" />
<glyph unicode=")" horiz-adv-x="452" d="M51 -573q172 461 176.5 972.5t-164.5 993.5h121q94 -234 135 -520t29.5 -564t-65.5 -545q-44 -177 -105 -337h-127z" />
<glyph unicode="*" horiz-adv-x="714" d="M110 1295q17 35 46 46q19 5 32 -4q8 -13 69.5 -70t64.5 -89q0 65 -25 204q-6 41 61 41q60 0 60 -39q-21 -144 -21 -202q5 11 12 22t17 23.5t17 21.5t20 22.5t19 19.5l21.5 21.5l18.5 18.5q19 19 47.5 3.5t37.5 -42.5t-11 -49q-76 -49 -107 -72q0 -5 44 -39t65 -47 q26 -20 1 -55q-23 -33 -55 -34q-20 -1 -32 14q-12 16 -38.5 44.5t-46 54t-30.5 52.5q0 -78 21 -211q6 -19 -11 -29t-49 -10q-55 0 -55 39q19 176 19 217q-10 -36 -56.5 -85t-58.5 -76q-20 -20 -50.5 -6.5t-40 39.5t10.5 46q5 5 21.5 21t28 26.5t26.5 22t24 14.5 q-32 24 -108 76q-28 10 -9 50z" />
<glyph unicode="+" horiz-adv-x="1110" d="M102 586v108h400v369h108v-369h398v-108h-398v-408h-108v408h-400z" />
<glyph unicode="," horiz-adv-x="415" d="M104 86q4 40 38.5 68t76.5 28q44 0 69.5 -28.5t22.5 -71.5q-8 -82 -68 -155.5t-132 -73.5q79 53 65 135q-36 6 -57 34.5t-15 63.5z" />
<glyph unicode="-" horiz-adv-x="876" d="M102 580v106h672v-106h-672z" />
<glyph unicode="." horiz-adv-x="395" d="M104 90q6 34 36.5 60t68.5 26t63 -27.5t19 -62.5q-5 -35 -35 -60.5t-68 -25.5q-40 0 -64.5 26.5t-19.5 63.5z" />
<glyph unicode="/" horiz-adv-x="675" d="M20 0l512 1393h123l-512 -1393h-123z" />
<glyph unicode="0" horiz-adv-x="966" d="M61 684q0 139 28 265t81 226t137 159t187 59q104 0 188 -59t136.5 -159t80 -226t27.5 -265q0 -138 -27.5 -260t-80.5 -217.5t-137 -151t-189 -55.5q-103 0 -186 55.5t-136 151t-81 217.5t-28 260zM203 684q0 -156 34 -287.5t104.5 -217t166.5 -85.5h2q91 0 165.5 84.5 t115 219t40.5 286.5q0 154 -40.5 294t-115.5 230t-167 90q-72 0 -131 -52.5t-96.5 -139.5t-57.5 -196t-20 -226z" />
<glyph unicode="1" horiz-adv-x="411" d="M1.5 1172q-1.5 8 0.5 10q155 93 270 192q16 19 41 19h37q-16 -204 -16 -592v-277q0 -393 8 -524h-121q12 115 12 508v280q0 261 -16 392q-1 4 -4 5.5t-13.5 -1t-29.5 -10t-52.5 -23.5t-82.5 -41q-2 -2 -7 4.5t-10 16.5t-10 21.5t-6.5 19.5z" />
<glyph unicode="2" horiz-adv-x="856" d="M20 0q0 54 14 108.5t35 100t57.5 96t68 87.5t81.5 85t83.5 77t86.5 75q106 93 168 198.5t62 210.5q0 121 -63.5 199t-170.5 78q-56 0 -102.5 -21.5t-76 -58.5t-48.5 -77t-29 -85q-4 -15 -40 -15t-40 17q-23 81 -3.5 140.5t73 99t122 59t144.5 19.5q157 0 255 -95t98 -249 q0 -134 -74.5 -244t-214.5 -227q-68 -56 -111.5 -96.5t-102 -106.5t-95 -140.5t-50.5 -156.5q432 0 555 18q13 0 16 -45t-11 -51h-687z" />
<glyph unicode="3" horiz-adv-x="733" d="M40.5 52q-2.5 27 9 52.5t30.5 26.5q76 -55 178 -55q131 0 214 78.5t83 218.5q0 139 -96.5 230t-276.5 91q-8 0 -33 -2t-47 -2q-28 9 -27 48t27 44q37 -4 86 -4q171 0 253.5 84t82.5 217q0 111 -61.5 173.5t-173.5 62.5q-133 0 -215 -111q-12 0 -23 69t-2 75 q106 45 236 45q168 0 261 -85.5t93 -228.5q0 -129 -70 -217t-192 -127q128 -33 211.5 -128t83.5 -240q0 -175 -117.5 -271t-318.5 -96q-120 0 -179 20q-14 5 -16.5 32z" />
<glyph unicode="4" horiz-adv-x="921" d="M3.5 345.5q-10.5 26.5 10.5 57.5q546 695 721 961q20 32 84 27q0 -383 -10 -998h72q16 0 19 -36.5t-15 -41.5h-74q8 -194 20 -315h-120q6 47 6 127v180q0 8 -10 8q-568 0 -664 2q-29 2 -39.5 28.5zM166 428q-7 -13 8 -16q40 -5 256.5 -12t265.5 -7q25 0 25 21v760 q-61 -88 -179 -237t-220.5 -283.5t-155.5 -225.5z" />
<glyph unicode="5" horiz-adv-x="862" d="M51 309q3 10 39 9.5t39 -11.5q19 -98 87.5 -162.5t191.5 -64.5q138 0 217.5 94.5t79.5 241.5q0 159 -134.5 252.5t-408.5 93.5q-58 0 -58 47l17 522q0 45 29 58l600 4q8 0 12.5 -44t-4.5 -53h-529q-22 -107 -22 -254q0 -91 10 -186q1 -8 2.5 -11.5t4.5 -6t9 -2.5 q279 -4 433.5 -115t154.5 -297t-115.5 -305t-316.5 -119q-151 0 -232 41t-104 104q-23 76 -2 164z" />
<glyph unicode="6" horiz-adv-x="862" d="M63.5 514q-5.5 74 2.5 139q21 353 178.5 546.5t443.5 193.5h78l-76 -86q-31 8 -59 8q-95 0 -173 -43.5t-129.5 -117t-82.5 -162.5t-41 -187q40 42 113 75t167 33q97 0 175.5 -63t119.5 -162t41 -209q-7 -93 -35 -177.5t-74.5 -152.5t-117 -108.5t-154.5 -40.5 q-80 0 -145 30t-105 81t-69.5 117.5t-40.5 139t-16.5 146.5zM202.5 547q-2.5 -68 7 -149.5t31.5 -150t70 -115t115 -46.5q69 0 132 53.5t103 143.5t46 194q9 144 -56.5 248t-179.5 104q-96 0 -168 -54t-88 -113q-10 -47 -12.5 -115z" />
<glyph unicode="7" horiz-adv-x="778" d="M1.5 1328.5q-3.5 54.5 18.5 60.5h437q251 0 362 6q-46 -96 -186 -355q-70 -128 -110.5 -204t-99.5 -200.5t-92.5 -216.5t-61 -205.5t-33.5 -213.5h-91q-18 0 -25 9.5t-7 33.5q5 67 32.5 157.5t78.5 206.5t92.5 202t107.5 218q9 19 36 73.5t38 77.5l33 69t34 72.5t28 62 t26.5 64t19.5 54.5v7l-616 -33q-18 0 -21.5 54.5z" />
<glyph unicode="8" horiz-adv-x="856" d="M61 377q0 130 63 215.5t155 126.5q-87 31 -144 110.5t-57 208.5q0 160 98.5 257.5t259.5 97.5q164 0 261.5 -97.5t97.5 -257.5q0 -126 -58.5 -206t-144.5 -113q94 -36 158.5 -123t64.5 -219q0 -166 -105.5 -271.5t-275.5 -105.5q-167 0 -270 104.5t-103 272.5zM188 377 q0 -133 72 -213t184 -80q114 0 194.5 81.5t80.5 211.5q0 129 -82 214t-193 85q-110 0 -183 -84t-73 -215zM205 1038q0 -121 68 -200.5t171 -79.5q105 0 180.5 80.5t75.5 199.5t-75.5 195t-182.5 76q-102 0 -169.5 -75.5t-67.5 -195.5z" />
<glyph unicode="9" horiz-adv-x="862" d="M41 913q7 93 35 177.5t74.5 153t117 109t154.5 40.5q80 0 145 -30.5t105 -81t70 -117t41 -139.5t16.5 -147t-2.5 -139q-21 -353 -179 -546t-444 -193h-78l76 86q31 -8 59 -8q90 0 165.5 42t126 114t82 159.5t42.5 184.5q-43 -40 -113 -69.5t-157 -29.5q-97 0 -175.5 63 t-119.5 162t-41 209zM156 915q-9 -144 56 -248t179 -104q96 0 168 54.5t88 113.5q11 50 15 119.5t-5.5 150t-32 148.5t-71.5 113t-117 45q-105 0 -188 -116.5t-92 -275.5z" />
<glyph unicode=":" horiz-adv-x="450" d="M102 106q0 42 26 75.5t56 33.5q18 0 22 -12.5t-9 -24.5q-11 -9 -23 -30.5t-12 -38.5q0 -21 16.5 -36.5t30.5 -15.5q16 0 31.5 16.5t15.5 35.5q0 34 -35 69q-13 12 -9 24.5t24 12.5q51 1 81.5 -29.5t30.5 -72.5q0 -113 -141 -113h-2q-44 0 -73.5 26.5t-29.5 79.5zM102 741 q0 43 26 77t56 34q18 0 22 -13t-9 -24q-11 -9 -23 -31.5t-12 -40.5q0 -20 16.5 -34.5t30.5 -14.5q16 0 31.5 15.5t15.5 33.5q0 37 -35 72q-13 11 -8.5 24t23.5 13q52 1 82 -29.5t30 -74.5q0 -111 -141 -111h-2q-44 0 -73.5 25.5t-29.5 78.5z" />
<glyph unicode=";" horiz-adv-x="450" d="M102 735q0 42 26 75.5t56 33.5q18 0 22 -12.5t-9 -24.5q-11 -9 -23 -31t-12 -39q0 -21 16.5 -36t30.5 -15q16 0 31.5 16t15.5 35q0 35 -35 70q-13 12 -9 24.5t24 12.5q51 1 81.5 -29.5t30.5 -73.5q0 -112 -141 -112h-2q-44 0 -73.5 25.5t-29.5 80.5zM117 92q4 39 38 67.5 t76 28.5q44 0 70 -29t23 -71q-8 -82 -68.5 -155.5t-132.5 -73.5q78 59 65 135q-35 6 -56 34.5t-15 63.5z" />
<glyph unicode="&#x3c;" horiz-adv-x="946" d="M102 616l564 439h178l-555 -439q103 -79 322 -254t233 -186h-180z" />
<glyph unicode="=" horiz-adv-x="917" d="M102 481v109h713v-109h-713zM102 700v109h713v-109h-713z" />
<glyph unicode="&#x3e;" horiz-adv-x="946" d="M102 203l555 440q-75 58 -555 438h179l563 -438l-563 -440h-179z" />
<glyph unicode="?" horiz-adv-x="1021" d="M105 1063q0 6 6 14q33 29 73 72.5t69 73.5t67.5 61t88 49.5t111.5 24.5q81 6 165.5 -25.5t149 -95.5t83.5 -143q2 -39 -11 -79.5t-30.5 -71t-55 -73.5t-60 -65t-71.5 -68q-4 -4 -33.5 -30.5t-38 -35t-35 -34.5t-36 -40t-28.5 -39.5t-25 -44.5t-13.5 -44t-6 -50t8.5 -50 q3 -36 -31 -57t-74 -16t-54 34q-7 26 -8 52t5 51t14.5 48t23.5 47t29.5 44t35 43.5t36.5 41t37 40.5q11 12 17 18q55 55 88 90.5t74.5 88.5t61.5 101t20 92q0 76 -71.5 149t-149.5 73q-135 0 -289 -203q-28 -32 -92 -48q-52 -14 -51 5zM256 106q0 42 26 75.5t56 33.5 q18 0 21.5 -12.5t-9.5 -24.5q-11 -9 -23 -30.5t-12 -38.5q0 -21 16.5 -36.5t30.5 -15.5q16 0 32 16.5t16 35.5q0 34 -35 69q-13 12 -9 24.5t23 12.5q51 1 82 -29.5t31 -72.5q0 -113 -142 -113h-2q-44 0 -73 26.5t-29 79.5z" />
<glyph unicode="@" horiz-adv-x="1392" d="M102 387q0 157 80 290.5t217 211.5t297 78q161 0 298 -78t216.5 -211.5t79.5 -290.5q0 -64 -16.5 -132t-48 -131.5t-87 -106t-124.5 -46.5q-48 -2 -91 20.5t-51 67.5q-62 -59 -178 -59q-119 0 -190.5 85t-71.5 200q0 120 84.5 188t218.5 68q80 0 129 -17v11 q0 96 -41.5 150.5t-134.5 64.5q-14 0 -24.5 14.5t-4.5 29.5t33 17q139 -7 194.5 -60.5t55.5 -170.5q0 -38 -2 -122t-2 -134q0 -138 12 -234q4 -30 19.5 -45.5t36.5 -15.5q71 0 142.5 100.5t72.5 249.5q1 213 -152.5 361.5t-372.5 148.5q-217 0 -369.5 -148.5t-152.5 -361.5 q0 -133 70 -247.5t186.5 -184t251.5 -78.5q14 -2 14.5 -29t-14.5 -33q-157 4 -290.5 83t-211.5 211t-78 286zM573 285q0 -85 38.5 -149t107.5 -64q57 0 91.5 24t41.5 54q12 36 13.5 84.5t-4 120.5t-5.5 94q-39 30 -108 30q-82 0 -128.5 -51.5t-46.5 -142.5z" />
<glyph unicode="A" horiz-adv-x="1085" d="M20 0q111 254 302.5 767.5t224.5 598.5q13 21 27 26q6 2 11 2q8 0 16 -4q13 -7 30 -24q59 -226 202 -679t232 -687h-131q-19 82 -111 379h-542q-11 -32 -39.5 -112t-48.5 -142t-37 -125h-136zM311 498h486l-219 661z" />
<glyph unicode="B" horiz-adv-x="815" d="M82 1366q153 27 283 27q92 0 165 -29.5t117.5 -79.5t68 -112t23.5 -130q0 -114 -58.5 -211.5t-168.5 -142.5q117 -31 179.5 -122t62.5 -206q0 -68 -24 -131.5t-68.5 -115t-116.5 -82.5t-160 -31h-299q17 325 17 649q0 360 -21 717zM205 633l4 -498q0 -26 54.5 -41.5 t135.5 -15.5q112 0 176 80t64 190q0 76 -30.5 142t-98.5 110q-65 43 -154 43h-8q-143 -3 -143 -10zM205 731q0 -13 101 -13q20 0 44 1h15q80 1 138 41q64 44 93 112t29 148q0 121 -64 208t-178 87q-67 0 -121.5 -10t-54.5 -23z" />
<glyph unicode="C" horiz-adv-x="1015" d="M61 688q0 200 82.5 361.5t229 252.5t329.5 91q142 0 218.5 -30.5t83.5 -70.5q12 -99 12 -194q0 -17 -38 -20t-42 14q-9 40 -19 68.5t-29 60t-44 50.5t-64.5 31.5t-91.5 12.5q-128 0 -231.5 -89t-159 -230.5t-55.5 -301.5q0 -172 49.5 -309.5t151.5 -222t241 -84.5 q116 0 201 65v-125q-77 -18 -209 -18q-144 0 -260.5 51.5t-194 143t-119 217.5t-41.5 276z" />
<glyph unicode="D" horiz-adv-x="1028" d="M82 1366q140 27 338 27q105 0 195.5 -39.5t154 -106.5t109 -156.5t67 -190t21.5 -206.5q0 -133 -35 -255.5t-101.5 -221.5t-174 -158t-240.5 -59q-238 0 -332 2q30 340 30 675q0 347 -32 689zM228 1052q0 -25 1 -51v-111q1 -88 3 -178t4 -177t4.5 -162.5t4 -132.5 t2.5 -89t1 -30q3 -17 59.5 -26t132.5 -9q98 0 177.5 51.5t128 138t74.5 193.5t26 223q0 118 -26.5 227.5t-76 197.5t-128.5 141t-177 53q-197 0 -200 -33q-4 -31 -7 -91.5t-3 -134.5z" />
<glyph unicode="E" horiz-adv-x="927" d="M82 1391q61 -3 201 -3q186 0 510 5q46 0 49 -39q16 -98 16 -213q0 -19 -39 -21.5t-43 13.5q-10 43 -21.5 66.5t-40 47t-79 34.5t-132 18t-206.5 8q-16 0 -34.5 -6t-18.5 -15l-8 -516q84 0 258 7t268 7q8 -4 7 -29t-13 -54t-25 -29q-81 0 -244.5 6.5t-250.5 7.5v-229 q0 -169 16 -326q4 -20 26 -30.5t46 -10.5l227 2q62 0 103.5 6.5t68.5 17t46 34.5t30 48.5t26 69.5q5 20 43.5 18t38.5 -22q0 -62 -24 -225q-8 -39 -49 -39h-746q29 286 29 615q0 362 -35 776z" />
<glyph unicode="F" horiz-adv-x="858" d="M82 1391q66 -2 215 -2q164 0 410 4h86q46 0 49 -39q16 -98 16 -213q0 -19 -39 -21.5t-43 13.5q-16 68 -38 101.5t-72.5 51t-143.5 17.5l-225 4q-16 0 -34.5 -6t-18.5 -15l-8 -516q275 0 469 12q18 2 57 2q8 -4 7 -29t-13 -54t-25 -29q-23 0 -33 2q-92 10 -462 12v-229 q0 -81 6.5 -246t11.5 -211h-166q33 311 33 631q0 351 -39 760z" />
<glyph unicode="G" horiz-adv-x="1148" d="M61 668q0 208 89.5 373t252 258.5t369.5 93.5q87 0 154.5 -9t105.5 -24t58 -31t22 -33q16 -115 16 -213q0 -15 -37 -17.5t-42 11.5q-60 238 -287 238q-114 0 -211 -53.5t-162 -142.5t-101 -204.5t-36 -240.5q0 -173 51.5 -307.5t151.5 -211.5t233 -77q64 0 132.5 12.5 t74.5 28.5q14 36 14 182q0 169 -16 231q-7 19 -30 26t-68 9q-11 0 -11 37t11 37q86 -4 118 -4q14 0 55.5 1t59.5 1q-31 -159 -31 -360q0 -95 21 -246q-41 -13 -148.5 -23t-195.5 -10q-289 0 -451 175.5t-162 492.5z" />
<glyph unicode="H" horiz-adv-x="1011" d="M82 1391q224 0 272 2q9 0 9.5 -37t-9.5 -37q-79 -4 -84 -35q-12 -89 -12 -520h555q0 422 -16 520q-3 35 -82 35q-9 0 -8.5 37t8.5 37q53 -3 121 -3q41 0 88 1q0 -4 -1 -22.5t-1 -22.5q-23 -305 -23 -502v-226q0 -292 31 -618h-209q-14 0 -16.5 35.5t14.5 38.5q76 4 78 32 q16 192 16 580h-555q0 -409 16 -577q4 -28 91 -35q18 -3 16.5 -38.5t-19.5 -35.5h-276q27 351 27 618v181q0 235 -31 592z" />
<glyph unicode="I" horiz-adv-x="442" d="M82 1391q41 -2 90 -2q74 0 166 4q9 0 9 -36t-9 -36q-88 -4 -96 -31q-13 -160 -13 -452v-205q0 -391 17 -527q3 -17 27 -23.5t69 -10.5q18 -3 18 -31v-7q-2 -34 -20 -34h-254q25 312 25 643v176q0 177 -29 572z" />
<glyph unicode="J" horiz-adv-x="700" d="M0 281q0 20 37 21t41 -19q18 -107 65.5 -159t141.5 -52q117 0 172 125.5t55 392.5q0 542 -16 706q-5 21 -93 25q-7 0 -7 36t7 36q62 -3 139 -3q46 0 97 1q-23 -183 -27 -397q-1 -72 -1 -140q0 -137 5 -262q2 -63 2 -207q0 -193 -88 -289t-270 -96q-99 0 -167 24.5 t-75 51.5q-6 26 -12 90t-6 115z" />
<glyph unicode="K" horiz-adv-x="929" d="M82 1354q10 29 42 39q15 5 30 5q16 0 34 -7q32 -12 39 -39q-14 -143 -14 -478q271 271 371 390q-29 2 -86 4q-6 1 -6 14t4.5 26t11.5 13q36 -4 102 -4t162 4q8 -6 11.5 -28.5t-3.5 -24.5q-64 -3 -100 -27q-71 -60 -184.5 -187.5t-165.5 -176.5q-10 -10 -2 -27 q34 -53 101 -166t106 -174q157 -249 264 -387q21 -24 46 -33.5t66 -11.5h2q15 -3 15 -39t-15 -39h-243q-140 266 -260 457q-133 204 -197 291q3 -621 16 -748h-145q14 229 14 561v264q0 329 -16 529z" />
<glyph unicode="L" horiz-adv-x="845" d="M82 0q7 85 15.5 269.5t8.5 320.5v168q0 121 -5 316.5t-11 275.5q0 20 22 31.5t52 11.5t53 -11t23 -30q-11 -270 -11 -590v-234q0 -280 17 -413q4 -52 24 -52h252q66 0 109 9.5t70.5 33t41.5 52t27 75.5q6 19 41 17t35 -23q-5 -94 -19 -188q-7 -39 -45 -39h-700z" />
<glyph unicode="M" horiz-adv-x="1329" d="M82 0q24 103 24 377q0 514 -10 778l-8 240q45 -4 119 -4q17 0 36 -9t27 -30q69 -204 217.5 -575.5t204.5 -524.5q75 206 224 583t204 521q16 35 49 35h78q-26 -273 -26 -756q0 -207 20 -529q4 -78 4 -106h-201q-14 3 -13 37.5t18 34.5q70 8 75 32q15 90 15 1055 q-76 -168 -157 -373t-136.5 -356t-143.5 -399q-12 -31 -34 -31h-56q-92 280 -136 411t-129 357.5t-159 384.5q0 -918 15 -1049q6 -23 100 -32q8 -6 7.5 -39t-9.5 -33h-219z" />
<glyph unicode="N" horiz-adv-x="1017" d="M82 0q16 289 16 662q0 330 -16 708q6 8 43 20q27 9 59 9q12 1 25 -1q47 -4 65 -38q137 -250 263 -473q31 -55 101.5 -179.5t114.5 -204t85 -157.5q0 807 -19 940q-1 20 -22 27.5t-78 9.5q-9 0 -8.5 35t8.5 35q49 -2 217 -2q-14 -376 -14 -551v-840h-80l-156 311 q-253 522 -493 901q0 -967 20 -1110q7 -18 35 -26t55 -8q10 0 9.5 -34t-9.5 -34h-221z" />
<glyph unicode="O" horiz-adv-x="1034" d="M61 723q0 131 30.5 250t88 213.5t147.5 150.5t201 56q109 0 199 -56t147 -150t88 -213.5t31 -250.5q0 -132 -31 -259.5t-88 -231.5t-148 -168t-200 -64t-199.5 64t-147 168.5t-87.5 231.5t-31 259zM236 723q0 -113 20.5 -223.5t59 -204t102 -151.5t141.5 -58h2 q77 0 140 58t101 151.5t58.5 204t20.5 223.5q0 111 -20.5 213.5t-59 186.5t-101.5 134t-141 50t-141.5 -50t-102 -134t-59 -186.5t-20.5 -213.5z" />
<glyph unicode="P" horiz-adv-x="761" d="M82 0q27 331 27 606q0 591 -17 764q115 23 273 23q95 0 169 -31t118 -83.5t66.5 -117t22.5 -137.5q0 -77 -26 -151t-73.5 -134.5t-121.5 -98.5t-162 -40q-94 0 -131 4v-604h-145zM227 709q0 -14 40.5 -25.5t90.5 -11.5q86 0 151 52.5t95.5 130t30.5 165.5q0 81 -26 148 t-85 111t-141 44q-54 0 -104 -8.5t-50 -18.5z" />
<glyph unicode="Q" horiz-adv-x="993" d="M61 741q0 102 18.5 197t56 178.5t91 145.5t128 97.5t161.5 35.5q141 0 246 -94.5t156 -241t51 -318.5q0 -132 -30 -267t-93.5 -252t-147.5 -169q150 -58 228 -58q11 0 20 1q41 6 55 20q8 4 24.5 -13t18.5 -28q-33 -96 -94 -106q-7 -1 -14 -1q-107 0 -369 136 q-25 -3 -49 -3q-69 0 -132 28q-83 38 -141.5 112t-101 173.5t-62.5 208.5t-20 218zM231 741q0 -111 20 -224t57.5 -210.5t99 -159t137.5 -61.5t138 61.5t99.5 159t57.5 210.5t20 224q0 147 -33.5 273t-107 210.5t-174.5 84.5q-76 0 -137.5 -48.5t-99 -129.5t-57.5 -181 t-20 -209z" />
<glyph unicode="R" horiz-adv-x="849" d="M82 0q8 95 17.5 298.5t9.5 348.5q0 591 -15 723q104 23 264 23q174 0 267.5 -96t93.5 -234q0 -110 -59.5 -209.5t-163.5 -148.5q27 -18 48.5 -42.5t34.5 -44.5t27.5 -59t20.5 -57.5t20 -67.5q28 -99 47.5 -160t57 -145t77.5 -129h-98q-49 0 -65 35v-2q-25 36 -86 295 q-2 8 -9 43.5t-12 55.5t-15 55.5t-21.5 58.5t-27 49t-36 42.5t-45.5 24.5q-27 11 -74 11q-11 0 -39 0.5t-50.5 0.5t-37.5 -1v-668h-131zM213 758q0 -17 123 -18q86 0 150.5 49t95 120.5t30.5 151.5q0 110 -61 186t-176 76q-60 0 -109 -8.5t-49 -18.5z" />
<glyph unicode="S" horiz-adv-x="841" d="M63 1085v5q-1 135 105 218q108 85 295 85q120 0 188.5 -23t77.5 -51q14 -68 14 -193q0 -13 -17 -19.5t-35.5 -2.5t-22.5 18q-25 101 -71.5 149t-143.5 48q-105 0 -169.5 -55t-64.5 -150q0 -182 236 -289q346 -151 346 -430q0 -179 -120.5 -284.5t-311.5 -110.5 q-283 0 -291 117q-3 24 22.5 35t60.5 5t58 -28q57 -51 158 -51q139 0 202.5 70t63.5 217q0 126 -75.5 219t-209.5 151q-298 142 -295 350z" />
<glyph unicode="T" horiz-adv-x="972" d="M0 1176q0 90 12 176q2 18 13 29.5t28 11.5q208 -3 425 -3t444 3q32 0 39 -41q4 -21 8 -86.5t4 -94.5q0 -14 -34.5 -15.5t-39.5 13.5q-10 48 -31 78t-68.5 48t-125.5 18h-123q-4 -84 -4 -654q0 -501 14 -659h-153q12 238 12 709q0 354 -21 604h-120q-60 0 -98 -8.5 t-60 -29t-31.5 -43.5t-17.5 -63q-3 -14 -37.5 -12t-34.5 19z" />
<glyph unicode="U" horiz-adv-x="1013" d="M61 1391q211 0 256 2q9 0 9 -36t-9 -36q-100 -5 -102 -31q-16 -150 -16 -604q0 -608 319 -608q166 0 259 149t93 416q0 498 -28 645q-9 28 -101 33q-9 0 -8.5 36t8.5 36q164 -4 232 -4q-17 -188 -17 -345q0 -76 5.5 -238.5t5.5 -256.5q0 -116 -28 -214.5t-83 -174 t-143.5 -118t-202.5 -42.5q-218 0 -328 149t-110 410q0 42 4 134t4 145q0 420 -19 553z" />
<glyph unicode="V" horiz-adv-x="999" d="M0 1389q70 0 130.5 -0.5t84.5 -0.5h43t31 1q19 -10 17.5 -36.5t-15.5 -31.5q-71 -7 -74 -21q44 -197 142 -531.5t169 -530.5q34 116 156 482t176 578q1 6 -4 10t-16 6.5t-24.5 4t-31.5 2.5q-8 0 -8 35t8 35l215 -2q-47 -124 -85 -231.5t-79 -236.5t-58 -184.5t-67 -224.5 t-61 -207l-82 -270q-9 -35 -43 -35h-90q-14 44 -41.5 142t-32.5 114q-227 811 -360 1133z" />
<glyph unicode="W" horiz-adv-x="1607" d="M0 1389l289 2q6 -8 8.5 -39t-4.5 -33q-69 -9 -72 -27q28 -247 221 -1048q56 197 166 574t154 530q15 38 37 38h69q160 -719 312 -1177q197 704 266 1087q-3 21 -82 25q-9 0 -8.5 35t8.5 35q66 -2 244 -2l-363 -1389h-86q-34 0 -43 41q-46 209 -140.5 561t-164.5 569 q-61 -161 -115 -348t-114.5 -419.5t-100.5 -368.5q-8 -35 -39 -35h-104q-180 943 -338 1389z" />
<glyph unicode="X" horiz-adv-x="1140" d="M2 35v7q0 29 8 36q68 12 92 41q75 115 225.5 327.5t215.5 309.5q-186 311 -406 641q89 -4 187 -4l311 -504q203 279 283 430q1 1 -11 2t-31 1.5t-38 0.5q-9 0 -9 35t9 35h276q17 0 19 -33.5t-15 -36.5q-65 -4 -82 -31q-182 -235 -354 -477l459 -815h-197 q-33 64 -102 205.5t-128 255t-122 219.5q-268 -397 -359 -578q0 -11 23 -17.5t55 -6.5q9 0 9 -39t-9 -39h-299q-9 0 -10 35z" />
<glyph unicode="Y" horiz-adv-x="1050" d="M0 1389q274 0 299 2q26 -18 21 -43t-23 -27q-51 0 -55 -14q21 -57 46 -113.5t59 -123.5t55 -106.5t67.5 -124t62.5 -114.5q209 323 316 584q1 4 -4 6.5t-15.5 3.5t-22.5 1.5t-28 0.5q-10 0 -9.5 35t9.5 35q70 -3 159 -3q54 0 114 1l-76 -97q-126 -164 -346 -559l-62 -112 q0 -469 19 -621h-172q14 219 14 631q-176 380 -428 758z" />
<glyph unicode="Z" horiz-adv-x="937" d="M4 15q-4 6 -4 12q0 11 10 26l-2 -2l719 1264q-2 2 -4 2q-294 0 -414 -10q-48 -9 -84 -49.5t-53 -110.5q-9 -15 -42.5 -14t-33.5 20q0 26 7.5 99.5t13.5 105.5q3 35 47 35q47 -4 774 -4q-126 -195 -201.5 -314.5t-193 -313.5t-206.5 -362.5t-151 -314.5q444 5 523 16 q56 12 85.5 50t47.5 116q3 14 20.5 18t34 -4t16.5 -24q0 -30 -8.5 -107t-15.5 -110q-9 -37 -39 -37h-815h-5q-18 0 -26 13z" />
<glyph unicode="[" horiz-adv-x="618" d="M102 1393h410l53 -123h-327q1 -284 5 -858.5t5 -860.5h266l53 -124l-450 8z" />
<glyph unicode="\" horiz-adv-x="675" d="M20 1393h123l512 -1393h-123z" />
<glyph unicode="]" horiz-adv-x="618" d="M51 -573l53 129h267q1 284 5 856t5 858h-330l55 123h410l-14 -1966h-451z" />
<glyph unicode="^" horiz-adv-x="964" d="M102 721l379 567l381 -567h-155l-226 330l-223 -330h-156z" />
<glyph unicode="_" horiz-adv-x="1126" d="M0 -281h1126v-129h-1126v129z" />
<glyph unicode="`" horiz-adv-x="491" d="M102 1303l142 2l145 -187l-139 -2q-7 9 -33.5 40t-38.5 48h2z" />
<glyph unicode="a" d="M61 283q0 121 84.5 188.5t219.5 67.5q86 0 129 -15q0 102 -41.5 158t-135.5 66q-15 5 -16 27.5t21 33.5q139 -7 194 -60t55 -171q0 -91 -2 -134q-2 -53 -2 -104q0 -187 29 -340h-59q-25 0 -33 25q-2 6 -2 32q-60 -57 -178 -57q-119 0 -191 84t-72 199zM203 283 q0 -84 38 -148.5t107 -64.5q57 0 91.5 24t41.5 53q11 37 13 85q0 10 1 21q-1 42 -5 98q-6 71 -5 95q-40 31 -108 31q-82 0 -128 -51.5t-46 -142.5z" />
<glyph unicode="b" horiz-adv-x="788" d="M82 1364q0 9 69.5 9t69.5 -9q-20 -166 -20 -471v-156q78 78 207 78q76 0 138 -32t101 -86.5t59.5 -123t20.5 -143.5q0 -81 -24 -156.5t-69.5 -137.5t-119 -99t-164.5 -37q-98 0 -164 39l-6 -39h-90q1 21 8 156q15 176 15 487q0 141 -11 383.5t-20 337.5zM203 299 q0 -36 2 -61.5t10.5 -59t24 -54t45 -35.5t71.5 -15q65 0 117 29.5t84 79t49 110t17 125.5q0 82 -24.5 153t-75.5 117.5t-120 46.5q-70 0 -123.5 -38t-68.5 -85q-8 -31 -8 -313z" />
<glyph unicode="c" horiz-adv-x="679" d="M61 401q0 174 101 292t270 118q108 0 161 -34t62 -79q4 -28 4.5 -56t-4.5 -56q-3 -12 -31.5 -13.5t-31.5 7.5q-15 74 -56 120q-40 46 -107 45h-3q-70 0 -123 -49q-53 -48 -79 -126q-25 -75 -25 -162v-7q0 -147 59.5 -241t165.5 -94q71 0 121 47q16 -5 21.5 -43.5 t-13.5 -53.5q-53 -16 -137 -16q-167 0 -261 108.5t-94 292.5z" />
<glyph unicode="d" horiz-adv-x="788" d="M61 428q0 101 35 186t109.5 141t175.5 56q129 0 207 -78v156q0 300 -21 475q0 9 70 9t70 -9q-9 -95 -20 -339.5t-11 -385.5q0 -345 12 -483q0 -8 4.5 -64t5.5 -92h-92l-2 41q-70 -41 -166 -41q-91 0 -164.5 37t-119 98.5t-69.5 136.5t-24 156zM166 416q0 -89 28 -164.5 t90 -126.5t148 -51q42 0 71.5 14.5t45.5 35t24.5 53t10.5 58t2 60.5q0 282 -8 313q-15 47 -69 86t-124 39q-68 0 -119.5 -46.5t-75.5 -117.5t-24 -153z" />
<glyph unicode="e" horiz-adv-x="628" d="M61 416q0 173 85 284t221 111q234 0 241 -410h-426q2 -166 53 -253t164 -87q63 0 119 29q17 8 26 -22q10 -35 -7 -52q-2 -3 -5 -4q-50 -12 -139 -12q-96 0 -162 30t-102.5 88t-52 130t-15.5 168zM182 465h320q12 0 12 6q-2 123 -34.5 198.5t-100.5 75.5 q-82 0 -136.5 -78.5t-60.5 -201.5z" />
<glyph unicode="f" horiz-adv-x="446" d="M82 0q22 434 24 600q0 160 -4 304t-4 183q0 149 80 227.5t228 78.5q115 0 172 -53q37 -35 37 -96q0 -31 -9 -68q-11 -8 -37.5 -8.5t-31.5 8.5q-16 64 -53.5 104.5t-86.5 40.5q-81 0 -133 -66q-49 -62 -49 -166v-12l2 -84l207 8q10 -3 10.5 -21.5t-8 -40t-18.5 -21.5 q-93 6 -195 6q0 -524 10 -924h-141z" />
<glyph unicode="g" horiz-adv-x="655" d="M41 -342q0 65 34 124.5t99 94.5q-31 15 -49.5 40.5t-18.5 51.5q0 23 18 43t50 29q-106 89 -106 291q0 79 13 157t39 149.5t72.5 116t106.5 44.5q46 0 109 -23q22 0 71.5 3t79.5 3q24 0 28 -24t-9.5 -48t-32.5 -24q-27 0 -43 2q33 -58 52 -165t19 -191q0 -165 -90 -266 q-69 -77 -165 -77q-30 0 -62 7q-66 -14 -66 -33q0 -18 43.5 -36t106 -36t125 -41t106 -61t43.5 -86q0 -98 -92 -182.5t-217 -91.5q-11 -1 -22 -1q-107 0 -171 63q-71 69 -71 167zM160 -332q0 -133 90 -160q26 -7 52 -7l126 45q90 65 90 151q0 40 -40 74.5t-113 48.5 q-62 11 -107 26q-47 -16 -72.5 -66t-25.5 -112zM170 332q7 -271 152 -271q74 0 124 79.5t50 191.5q0 81 -17.5 169t-55 156t-85.5 68q-78 0 -126 -111q-42 -99 -42 -250v-32z" />
<glyph unicode="h" horiz-adv-x="749" d="M82 0q35 95 35 596q0 478 -19 797h74q23 0 36 -15.5t15 -38.5q-12 -462 -12 -667q40 61 106.5 101t147.5 40q67 0 116 -23.5t76 -67t39.5 -95.5t12.5 -117q0 -134 -4 -510h-76q0 13 1 43q1 47 1.5 74t0.5 81q0 11 1 22q0 40 -2 68q-2 36 -5 89.5t-9.5 90t-15.5 80.5 t-23.5 72.5t-32 54t-41.5 38t-53 12.5q-77 0 -136.5 -57.5t-85.5 -145.5q-11 -59 -14 -522h-133z" />
<glyph unicode="i" horiz-adv-x="407" d="M82 1075q0 36 26.5 60t59.5 24q22 0 24.5 -11.5t-12.5 -25.5q-37 -25 -37 -45q0 -16 18 -26.5t34 -10.5q18 0 34.5 12t16.5 25q0 21 -43 53q-13 10 -7.5 19.5t27.5 9.5h5q52 1 82 -21q32 -22 32 -59q0 -94 -152 -94q-46 0 -77 22.5t-31 67.5zM143 809l90 2q26 0 36 -9 t10 -30q-3 -203 -3 -347q0 -253 9 -327q10 -25 90 -30q12 -3 12 -26q-1 -4 -1 -10q-2 -32 -17 -32h-224q5 54 5 293q0 37 2 155q1 59 1 108.5t-1 90.5q-2 81 -9 162z" />
<glyph unicode="j" horiz-adv-x="389" d="M-260 -319q8 12 41 12t37 -12q19 -73 62.5 -118.5t101.5 -45.5q37 0 64.5 18.5t46 57.5t30 86t18 118t8.5 137.5t3 159.5l-25 707h141l11 -506q4 -268 4 -381q0 -236 -74.5 -359.5t-249.5 -123.5q-92 0 -147.5 33t-71.5 85q-9 29 -9 62t9 70zM68 1065q0 38 26.5 61 t59.5 23q26 0 30 -11t-24 -28q-31 -25 -31 -43q0 -16 17.5 -26.5t33.5 -10.5q19 0 36 11.5t17 27.5q0 14 -40 49q-7 10 -3.5 20.5t19.5 10.5h5q51 0 82 -21q32 -23 32 -59q0 -92 -150 -92q-48 0 -79 21.5t-31 66.5z" />
<glyph unicode="k" horiz-adv-x="655" d="M82 0q16 495 16 911q0 256 -6 482h74q39 0 39 -52q0 -19 -4 -141q-8 -208 -8 -412q0 -199 2 -249q144 109 245 192q2 4 -7.5 8t-29.5 6.5t-45 2.5q-17 6 -14 22t18 21h275q18 -6 18 -27q0 -17 -18 -21q-50 -6 -78 -28q-72 -52 -244 -191q305 -492 324 -524h-92 q-6 0 -11 1.5t-8 2.5t-6.5 5t-4.5 5.5t-4.5 7t-4.5 7.5l-262 450l-2 -2q-50 -39 -54 -61q0 -238 17 -416h-125z" />
<glyph unicode="l" horiz-adv-x="335" d="M82 0v1393h74q23 0 36 -14t15 -36q-8 -288 -8 -965v-286q34 -25 82 -25q10 0 20 1q13 -3 13 -33q0 -35 -15 -35h-217z" />
<glyph unicode="m" horiz-adv-x="1028" d="M82 809h94q35 0 35 -29v-80q69 111 197 111q105 0 155 -76q33 33 85 54.5t106 21.5q192 0 192 -229q0 -407 21 -582h-103q0 22 3 82t6 123t4 139v22q0 64 -5 122q-6 67 -19 124t-40.5 90t-67.5 33q-43 0 -86 -20t-69 -53q12 -98 14 -317t17 -345h-99q0 28 2 97 q4 69 4 129v64v74q0 78 -8.5 139.5t-22 116.5t-40 85t-62.5 30q-59 0 -102.5 -44t-63.5 -111q-17 -80 -19 -168q-1 -27 -1 -60q-1 -71 3 -164q6 -136 7 -188h-131q0 43 9 179.5t9 256.5q0 133 -24 373z" />
<glyph unicode="n" horiz-adv-x="681" d="M82 809h94q35 0 34 -29v-80q69 111 198 111q65 0 107.5 -32t74.5 -105q10 -98 10 -299q0 -231 21 -375h-99q0 28 2 97q4 69 4 129v64v74q0 78 -8.5 139.5t-22 116.5t-40 85t-62.5 30q-59 0 -102.5 -44t-63.5 -111q-17 -80 -19 -168q-1 -27 -1 -60q-1 -71 3 -164 q6 -136 7 -188h-131q0 8 1 24.5t2.5 39.5t2.5 36q12 160 12 309q0 210 -24 400z" />
<glyph unicode="o" horiz-adv-x="710" d="M61 408q0 168 79 285.5t214 117.5q92 0 160 -57t101.5 -147t33.5 -199q0 -169 -79.5 -288.5t-217.5 -119.5q-90 0 -157.5 58t-100.5 149.5t-33 200.5zM201 408q0 -91 18.5 -165.5t59.5 -122.5t98 -48h2q55 0 96.5 48t61.5 123t20 165q0 138 -48 235.5t-132 97.5 q-58 0 -99 -48t-59 -121.5t-18 -163.5z" />
<glyph unicode="p" horiz-adv-x="825" d="M82 791h104l4 -113q37 54 103 87.5t151 33.5q81 0 143.5 -29t100.5 -79t57 -112t19 -133q0 -111 -43.5 -214t-130.5 -172.5t-197 -69.5q-123 0 -192 37q0 -232 10 -598q-14 0 -36 -1t-25 -1h-62q10 133 10 356q0 1 -1 186t-1 457q0 190 -14 365zM198 291v-7q0 -28 4 -65 q4 -42 13 -76q16 -31 62.5 -52t113.5 -21q80 0 138.5 49.5t85 123t26.5 158.5q0 112 -57.5 203.5t-149.5 108.5h-8q-51 0 -94 -25q-45 -28 -71.5 -72t-41 -87.5t-18.5 -84.5q0 -22 -1 -72.5t-2 -80.5z" />
<glyph unicode="q" horiz-adv-x="825" d="M61 426q0 98 34 181t108.5 137.5t177.5 54.5q85 0 151 -33.5t103 -87.5l4 113h104q-9 -114 -13.5 -251.5t-4.5 -232t1 -269.5t1 -255q0 -223 10 -356q-42 0 -79 1t-44 1q11 425 11 604q-69 -37 -193 -37q-71 0 -132 24.5t-104.5 66.5t-74 97.5t-45.5 117t-15 124.5z M182 389q0 -83 25.5 -152t84.5 -116t142 -47q67 0 116 25.5t62 56.5q5 10 7 26t4 79.5t2 184.5q2 13 2 27q0 47 -19 95q-25 62 -83 105q-54 40 -124 40h-10q-92 -13 -150.5 -109.5t-58.5 -214.5z" />
<glyph unicode="r" horiz-adv-x="546" d="M82 809l76 2q16 0 27.5 -10t11.5 -27l-4 -106q36 65 95.5 104t137.5 39q71 -1 102 -45q20 -28 20 -66q0 -22 -7 -47q-3 -9 -31 -6t-29 15q-22 53 -82 53q-63 0 -114.5 -50.5t-71.5 -121.5q-16 -53 -16 -287q0 -28 1 -113.5t1 -142.5h-111q25 143 25 432q0 129 -9 238.5 t-22 138.5z" />
<glyph unicode="s" horiz-adv-x="620" d="M61 631q0 76 67 128t185 52q188 0 215 -100q4 -19 4 -41q0 -28 -6 -62q-3 -12 -32.5 -12t-32.5 12q-36 140 -150 140q-57 0 -91 -28.5t-34 -72.5q0 -48 32.5 -81t115.5 -74q109 -49 167 -112t58 -153q0 -101 -81.5 -164t-182.5 -63q-57 0 -105 24t-73 70q-5 29 -4 60 t6 51q5 11 32.5 11.5t30.5 -9.5q11 -44 30.5 -77.5t43 -50t49.5 -23.5t49.5 2t43 27t31 50t11.5 72q0 137 -182 219q-101 46 -149 92t-48 113z" />
<glyph unicode="t" horiz-adv-x="464" d="M82 1393h115q36 0 36 -39l-6 -185l-4 -168q2 -1 19.5 -1t50.5 1q80 3 158 3q29 0 26 -33t-29 -51q-11 -7 -22 -7q-166 0 -201 5q-28 -460 -28 -543q0 -80 10 -137.5t26 -91t41.5 -52.5t50.5 -25t58 -6q69 0 115 31q9 6 18 -8q8 -14 10 -29q0 -3 1 -6q0 -10 -5 -14 q-67 -37 -182 -37q-62 0 -106 15t-71 42t-42.5 72.5t-21 97t-5.5 125.5q0 59 6 191t6 213q0 111 -11 323.5t-13 313.5z" />
<glyph unicode="u" horiz-adv-x="745" d="M61 811h105q20 0 24.5 -11t-0.5 -30q0 -5 -1 -19t-1 -18q-10 -133 -10 -237q0 -127 15 -210q36 -206 153 -206h2q70 0 126 48.5t75 111.5v-2q9 85 9 235q0 86 -3 193l-6 145h102q0 -3 -4.5 -43.5t-6.5 -69.5q-2 -30 -3 -100q-1 -35 -1 -71.5t1 -73.5q2 -75 8.5 -194.5 t18.5 -258.5h-62q-17 0 -26 9.5t-9 25.5v88q-35 -55 -92 -89t-131 -34q-129 0 -198 76q-68 74 -68 213q0 61 1 121q1 58 1 84q0 84 -19 317z" />
<glyph unicode="v" horiz-adv-x="737" d="M0 811h137q143 -347 248 -686h25q66 220 233 686h94q-182 -419 -301 -788q-13 -23 -33 -23h-98q-42 176 -133 427t-172 384z" />
<glyph unicode="w" horiz-adv-x="1159" d="M0 811h154q16 -101 46.5 -225.5t54.5 -207t69 -231.5q22 70 95 285t107 340q19 39 41 39h64q76 -359 200 -664q41 118 115 343t107 321h106q-178 -405 -250 -788q-5 -16 -32 -23h-60q-29 0 -39 27q-28 114 -100.5 323t-99.5 305q-151 -421 -211 -628q-9 -27 -35 -27h-105 q-126 517 -227 811z" />
<glyph unicode="x" horiz-adv-x="845" d="M0 0q25 29 117 133t155 177t101 122q-24 33 -123 172.5t-148 206.5h144l200 -305q40 50 120 153.5t120 153.5h115l-299 -369l344 -444h-172l-250 358q-10 -13 -132.5 -159t-152.5 -199h-139z" />
<glyph unicode="y" horiz-adv-x="759" d="M-158 -526q-2 3 -2 8q0 11 10 30q15 29 25 31q68 -14 105 -14q65 0 118.5 46.5t124.5 174.5q46 82 63 132.5t25 117.5q-31 169 -131 416t-200 381h161q153 -355 246 -664q15 42 60 174t73 205q56 151 94 285h146q-57 -137 -80.5 -195t-36.5 -93t-25 -69.5t-61.5 -161.5 t-130.5 -333q-89 -214 -138 -299q-120 -208 -267 -218q-9 -1 -17 -1q-73 0 -162 47z" />
<glyph unicode="z" horiz-adv-x="657" d="M0 0q59 84 90 123q215 300 387 622q-31 2 -60 2q-125 0 -237 -34q-5 -1 -9.5 24t-4 47t5.5 27h461q19 0 23 -16l2 -8q0 -12 -11 -25q-66 -96 -181 -280.5t-165 -260.5q-64 -98 -98 -155q1 0 52 -1.5t68.5 -1.5t64 2t71.5 7t56.5 15.5t51.5 25.5q31 -6 31 -45v-8 q-4 -46 -33 -60h-565z" />
<glyph unicode="{" horiz-adv-x="581" d="M106.5 385.5q3.5 6.5 20.5 20.5l9 7q9 7 12 10t12 10.5t14 13.5l12.5 15t13.5 19t11 21q21 43 33 327q5 108 10 179t16.5 157.5t32.5 139.5t51 71q76 31 158 2q12 -9 15.5 -16t-1 -11t-11 -6.5t-15.5 -3.5l-20 -4t-23 -5.5t-19.5 -7.5t-18.5 -13.5t-11 -20.5 q-16 -42 -25 -106t-11 -111t-3 -135q-1 -70 -2.5 -108.5t-6 -102t-14 -105.5t-24.5 -91t-39 -87t-56 -67l23 -33q112 -177 112 -512q0 -40 -9 -124t-9 -128q0 -84 92 -96l4 -41q-53 -30 -122 -3t-93 85q-2 23 -1.5 33.5t6.5 45t8 46.5q14 71 14 203q0 234 -64 389 q-21 69 -77 125q-8 12 -4.5 18.5z" />
<glyph unicode="|" horiz-adv-x="327" d="M102 -573v1966h123v-1966h-123z" />
<glyph unicode="}" horiz-adv-x="577" d="M66 -559q-28 17 7 33q7 4 26 11q61 23 69 42q17 44 26.5 109t11.5 111.5t3 133.5q1 70 2.5 106.5t6 100t13.5 103t24 88t39 85.5t56 66l-22 33q-59 93 -86 234.5t-27 293.5q0 41 9 125t9 127q0 82 -92 94q-42 29 10 47q26 9 54 9q45 0 87 -25.5t60 -69.5q3 -11 -3 -75.5 t-14.5 -142.5t-8.5 -109q0 -253 63 -406q20 -66 78 -127q5 -4 6.5 -8t-2 -9t-7.5 -9t-13 -11l-9 -7q-9 -7 -12 -10t-12 -10.5t-14 -13.5l-12.5 -15t-13.5 -19t-11 -21q-22 -44 -33 -315q-5 -106 -10.5 -178.5t-17 -158.5t-32.5 -139t-51 -71q-75 -31 -157 -2z" />
<glyph unicode="~" horiz-adv-x="974" d="M102 631q15 18 40 53.5t43 58t45 47.5t62.5 37.5t78.5 12.5q119 0 190 -92q2 -2 27.5 -35.5t34.5 -38.5q56 21 104 162l145 -25q-9 -81 -84.5 -153t-164.5 -72q-108 0 -187 102q-1 2 -8 11t-9 11.5t-7.5 10t-9 10.5t-9 8t-11 8.5t-11.5 6.5q-83 -83 -111 -123h-158z" />
<glyph unicode="&#xa1;" horiz-adv-x="350" d="M102 -408v1026h142v-1024zM106 745v189h142v-189h-142z" />
<glyph unicode="&#xa2;" horiz-adv-x="1153" d="M72 547q0 182 57 305q58 123 172 189.5t242 66.5q43 0 100 -8l88 307l111 -33l-88 -307q97 -42 150 -113.5t77 -183.5l-176 -27q-27 115 -96 172l-222 -768q31 -8 62 -8q105 0 179 72t91 199l180 -21q-32 -182 -155.5 -289.5t-292.5 -107.5q-53 0 -102 14l-99 -344 l-110 33l94 346q-120 58 -191 189t-71 317zM258 555q0 -267 123 -358l223 764q-23 2 -51 2q-131 5 -216.5 -107.5t-78.5 -300.5z" />
<glyph unicode="&#xa3;" horiz-adv-x="1001" d="M0 555v107h160q0 452 -17 688q0 20 22 31.5t52 11.5t53 -11t23 -30q-10 -245 -10 -690h286v-107h-286q0 -315 16 -440q4 -52 25 -52h251q66 0 109 9.5t70.5 33t41.5 52t27 75.5q6 19 41 17t35 -23q-5 -104 -18 -188q-7 -39 -45 -39h-701q7 72 15.5 245.5t9.5 309.5h-160z " />
<glyph unicode="&#xa4;" horiz-adv-x="1257" d="M72 305l147 141q-74 118 -74 248t74 248l-147 141l123 125l145 -145q110 76 248 76q140 0 250 -76l145 145l121 -125l-146 -141q76 -116 76 -248t-76 -248l146 -141l-121 -127l-145 148q-110 -76 -250 -76q-138 0 -248 76l-145 -148zM315 694q0 -112 80 -192t193 -80 t190 80q80 80 80 192q0 113 -80 193q-77 80 -190 80t-193 -80t-80 -193z" />
<glyph unicode="&#xa5;" horiz-adv-x="1050" d="M0 1389q274 0 299 2q19 -5 18 -31.5t-20 -38.5q-51 0 -55 -14q21 -57 46 -113.5t59 -123.5t55 -106.5t67.5 -124t62.5 -114.5q209 323 316 584q1 4 -4 6.5t-15.5 3.5t-22.5 1.5t-28 0.5q-10 0 -9.5 35t9.5 35q113 -5 137 -5q16 0 67 1.5t69 1.5l-76 -97q-38 -50 -78 -109 t-66 -99.5t-72 -119.5t-60.5 -105.5t-69 -124.5t-62.5 -113v-13h297v-108h-297q0 -4 -0.5 -55t0.5 -56h297v-108h-295q7 -217 17 -281h-170q6 141 8 281h-272v108h274q0 47 1 77t1 34h-276v108h276v23q-176 380 -428 758z" />
<glyph unicode="&#xa6;" horiz-adv-x="380" d="M72 317h155v-747h-155v747zM72 641v748h155v-748h-155z" />
<glyph unicode="&#xa7;" horiz-adv-x="1089" d="M72 631q0 88 53.5 157.5t146.5 98.5q-63 62 -89.5 112.5t-26.5 110.5q0 113 90 197q89 86 239 86q166 0 260.5 -79.5t114.5 -232.5l-168 -18q-18 108 -64 152.5t-130 44.5q-77 0 -130 -44t-53 -100q0 -47 33 -86q50 -59 273 -196q134 -80 192 -127q123 -105 123 -236 q0 -104 -64 -174q-43 -43 -141 -82q143 -110 143 -252q3 -81 -44.5 -150.5t-131 -109t-180.5 -35.5q-169 0 -270 84.5t-121 239.5l162 24q26 -116 79.5 -164.5t149.5 -48.5q89 0 142 46t53 112q0 45 -33 84q-58 67 -305 219q-141 88 -185 127q-55 48 -86.5 111t-31.5 129z M217 649q0 -54 43 -106q39 -51 184 -137q133 -78 207 -134q65 34 98 78.5t33 89.5q0 52 -45 109q-44 55 -202 151q-131 81 -185 125q-71 -42 -102 -83.5t-31 -92.5z" />
<glyph unicode="&#xa8;" horiz-adv-x="786" d="M72 1186v205h188v-205h-188zM444 1186v205h189v-205h-189z" />
<glyph unicode="&#xa9;" horiz-adv-x="1529" d="M72 735q0 173 88 328q92 162 243 242q159 84 322 84q160 0 319 -84q157 -83 244 -242q88 -155 88 -328q0 -166 -86 -323t-241 -242q-154 -86 -324 -86q-169 0 -326 86q-152 85 -241 242q-86 157 -86 323zM180 735q0 -135 72 -270q71 -126 200.5 -199t272.5 -73 q140 0 270 71q127 71 200 200t73 271q0 140 -74 273q-68 128 -203 200t-266 72q-136 0 -268 -72t-203 -200q-74 -133 -74 -273zM383 733q0 173 95 271t255 98q113 0 189 -54t106 -149l-102 -27q-26 65 -77.5 99.5t-119.5 34.5q-102 0 -164.5 -72t-62.5 -203 q0 -130 58.5 -198t158.5 -68q79 0 137.5 44.5t77.5 121.5l106 -33q-25 -106 -110 -171t-203 -65q-155 0 -249.5 100t-94.5 271z" />
<glyph unicode="&#xaa;" horiz-adv-x="897" d="M72 862q0 147 145 193q40 14 98 22l148 21l96 20q-3 72 -14 94q-13 26 -50 43t-94 17q-149 0 -165 -125l-138 33q13 95 91 152t214 57q164 0 232 -62q67 -61 67 -180v-301q0 -134 41 -184h-149q-18 40 -21 90q-124 -109 -256 -109q-114 0 -179.5 60.5t-65.5 158.5z M221 862q0 -43 34.5 -70.5t94.5 -27.5q72 0 126.5 38.5t72.5 96.5q8 19 8 102q-53 -15 -190 -36q-93 -13 -119 -39q-27 -24 -27 -64z" />
<glyph unicode="&#xab;" horiz-adv-x="1083" d="M72 528l319 455h148l-260 -455l258 -456h-146zM465 528l313 455h152l-264 -455l264 -456h-152z" />
<glyph unicode="&#xac;" horiz-adv-x="1191" d="M72 862v168h966v-606h-170v438h-796z" />
<glyph unicode="&#xad;" horiz-adv-x="749" d="M72 459v143h524v-143h-524z" />
<glyph unicode="&#xae;" horiz-adv-x="1538" d="M72 735q0 175 88 330q91 160 246 242q157 86 323 86q167 0 324 -86q155 -82 243 -242q88 -155 88 -330q0 -170 -86 -327q-85 -156 -243 -242q-157 -86 -326 -86q-171 0 -328 86q-153 84 -243 242q-86 157 -86 327zM180 735q0 -137 72 -272q72 -127 203 -201t274 -74 q138 0 270 72q129 72 203 202t74 273q0 142 -74 275q-69 129 -205 202q-135 72 -268 72q-135 0 -270 -72q-129 -70 -205 -202q-74 -133 -74 -275zM440 373v706h244q127 0 180 -20q55 -18 88 -66t33 -104q0 -79 -56 -136.5t-145 -64.5q38 -15 60 -37q40 -40 104 -141l86 -137 h-139l-64 110q-69 130 -118 166q-31 25 -90 25h-68v-301h-115zM555 770h137q95 0 133.5 28t38.5 81q0 31 -18 55q-19 28 -50.5 39.5t-111.5 11.5h-129v-215z" />
<glyph unicode="&#xaf;" horiz-adv-x="0" />
<glyph unicode="&#xb0;" horiz-adv-x="780" d="M72 1112q0 116 82 195q82 82 196 82q116 0 195 -82q82 -79 82 -195q0 -115 -82 -197q-78 -81 -195 -81q-114 0 -196 79q-82 82 -82 199zM182 1112q0 -69 49.5 -119.5t118.5 -50.5t118.5 50.5t49.5 119.5t-49.5 118.5t-118.5 49.5t-118.5 -49.5t-49.5 -118.5z" />
<glyph unicode="&#xb1;" horiz-adv-x="1193" d="M72 0v168h968v-168h-968zM72 664v165h399v400h170v-400h399v-165h-399v-404h-170v404h-399z" />
<glyph unicode="&#xb2;" horiz-adv-x="847" d="M72 631q6 54 47 114q67 89 207 191q144 105 172 133q37 40 37 84q0 51 -36.5 81t-103.5 30t-99 -24t-52 -91l-152 16q31 113 102.5 165t204.5 52q145 0 218 -56.5t73 -147.5q0 -86 -57 -158q-46 -55 -205 -172q-88 -63 -119 -96h385v-121h-622z" />
<glyph unicode="&#xb3;" horiz-adv-x="837" d="M72 831l145 15q23 -64 53 -82q45 -31 103 -31q68 0 111.5 38.5t43.5 94.5q0 111 -157 111q-19 0 -33 -2q-10 -2 -23 -2l23 110q76 0 116 29t40 74q0 38 -32 63t-87 25q-57 0 -89 -21.5t-55 -78.5l-143 22q42 106 104 148t183 42q136 0 205 -52t69 -136q0 -57 -35.5 -99.5 t-101.5 -60.5q172 -46 172 -190q0 -97 -81.5 -164.5t-221.5 -67.5q-267 0 -309 215z" />
<glyph unicode="&#xb4;" horiz-adv-x="595" d="M72 1110l133 281h237l-221 -281h-149z" />
<glyph unicode="&#xb6;" horiz-adv-x="1243" d="M72 1004q0 180 112 283.5t322 103.5h584v-160h-134v-1563h-155v1563h-207v-1563h-150v963q-172 6 -272 108t-100 265z" />
<glyph unicode="&#xb7;" horiz-adv-x="430" d="M72 614v205h204v-205h-204z" />
<glyph unicode="&#xb8;" horiz-adv-x="659" d="M72 -410l12 117q86 -4 94 -4q90 0 131 27q29 23 29 49q0 21 -9.5 33.5t-45.5 22t-103 11.5l53 177h134l-33 -107q83 -10 127.5 -50.5t44.5 -96.5q0 -79 -77 -135t-212 -56q-81 0 -145 12z" />
<glyph unicode="&#xb9;" horiz-adv-x="593" d="M72 1075v123q65 21 140.5 74.5t121.5 113.5h106v-751h-143v553q-100 -78 -225 -113z" />
<glyph unicode="&#xba;" horiz-adv-x="880" d="M72 1008q0 178 89.5 279.5t237.5 101.5t238 -101t90 -276q0 -171 -91.5 -273t-234.5 -102q-148 0 -238.5 100t-90.5 271zM219 1012q0 -120 49 -181t131 -61q84 0 132.5 61.5t48.5 186.5q0 117 -49 177t-132 60q-84 0 -132 -59.5t-48 -183.5z" />
<glyph unicode="&#xbb;" horiz-adv-x="1083" d="M72 72l264 456l-264 455h151l314 -455l-314 -456h-151zM463 72l260 456l-260 455h147l320 -455l-320 -456h-147z" />
<glyph unicode="&#xbc;" horiz-adv-x="1325" d="M104 1262q100 59 168 118q10 13 29 13h29q-11 -168 -11 -363v-119q0 -228 9 -366h-90q8 63 8 311v168q0 168 -8 236q0 3 -101 -50q-10 1 -24.5 24t-8.5 28zM313 0l512 1393h123l-512 -1393h-123zM674.5 211.5q-6.5 18.5 7.5 40.5l72 92q281 364 360 483q8 12 20.5 16 t41.5 1l-7 -594h37q14 0 15.5 -28.5t-11.5 -31.5h-39q2 -69 13 -190h-86q4 66 4 190h-400q-21 3 -27.5 21.5zM784 260q28 -3 156 -6.5t156 -3.5q8 0 8 4v434q-17 -22 -77 -97.5t-88.5 -112t-74 -99.5t-80.5 -119z" />
<glyph unicode="&#xbd;" horiz-adv-x="1413" d="M104 1262q100 59 168 118q10 13 29 13h29q-11 -168 -11 -363v-119q0 -228 9 -366h-90q8 63 8 311v168q0 168 -8 236q0 3 -101 -50q-10 1 -24.5 24t-8.5 28zM313 0l512 1393h123l-512 -1393h-123zM831 0q0 55 23 111t65.5 108t81 90.5t89.5 81.5q135 121 135 242 q0 69 -35.5 113.5t-97.5 44.5q-61 0 -98 -41.5t-50 -96.5q-3 -13 -29.5 -13.5t-29.5 11.5q-5 13 -4.5 45t6.5 56q12 41 64.5 69.5t140.5 28.5q97 0 158 -58.5t61 -152.5q0 -85 -44 -150t-132 -139q-40 -32 -66 -55.5t-59.5 -61.5t-55.5 -81.5t-32 -92.5q256 0 325 11 q9 0 12.5 -32t-6.5 -38h-422z" />
<glyph unicode="&#xbe;" horiz-adv-x="1366" d="M104 1364q64 31 146 31q104 0 161.5 -52.5t57.5 -142.5q0 -74 -38 -126.5t-105 -78.5q73 -25 118 -81.5t45 -141.5q0 -106 -72.5 -165.5t-195.5 -59.5q-60 0 -108 10q8 5 14.5 34t3.5 46q45 -33 102 -33q76 0 124.5 45t48.5 127q0 81 -57 134t-161 53q-15 0 -28 -1 t-17 -1q-19 5 -19 32t23 35q18 -2 46 -2q98 0 146 49t48 125q0 63 -35.5 99t-99.5 36q-77 0 -127 -67q-7 0 -17 45.5t-4 50.5zM354 0l512 1393h123l-512 -1393h-123zM715.5 211.5q-6.5 18.5 7.5 40.5q29 37 133 169t170.5 222.5t128.5 183.5q8 12 20.5 16t41.5 1l-7 -594h37 q14 0 15.5 -28.5t-11.5 -31.5h-39q2 -69 13 -190h-86q4 66 4 190h-400q-21 3 -27.5 21.5zM825 260q28 -3 156 -6.5t156 -3.5q8 0 8 4v434q-17 -22 -77 -97.5t-88.5 -112t-74 -99.5t-80.5 -119z" />
<glyph unicode="&#xbf;" horiz-adv-x="1021" d="M104 -143q-2 33 4.5 64.5t26 64.5t35 56.5t50.5 60t52.5 53.5t59.5 57q6 5 30.5 27.5t33.5 31t32 31t32.5 34.5t28 35t26 39t17.5 39t12.5 42.5t2 43t-7.5 46.5q-7 39 27 61t76 15t56 -37q25 -86 -36 -203v2q-10 -20 -29 -45t-33.5 -41.5t-46.5 -51.5t-45 -49 q-55 -55 -88 -90.5t-74.5 -88t-61.5 -100t-20 -91.5q0 -76 71 -148.5t150 -72.5q135 0 289 202q28 32 92 48q52 14 51 -5q0 -6 -6 -14q-12 -10 -51 -55q-45 -52 -73.5 -81t-75.5 -66.5t-99 -56.5t-112 -22h2q-81 -6 -165.5 26t-149 96t-83.5 143zM520 838q0 112 144 112 q44 0 73 -26.5t29 -79.5q0 -42 -26 -75.5t-56 -33.5q-19 0 -23 12.5t9 24.5q11 9 24 31t13 39q0 21 -17 36t-31 15q-16 0 -31.5 -16t-15.5 -35q0 -35 35 -70q13 -12 9 -24.5t-23 -12.5q-51 -1 -82 30t-31 73z" />
<glyph unicode="&#xc0;" horiz-adv-x="1085" d="M20 0q111 254 302.5 767.5t224.5 598.5q13 21 27 26t27 -2t30 -24q59 -226 202 -679t232 -687h-131q-19 82 -111 379h-542q-11 -32 -39.5 -112t-48.5 -142t-37 -125h-136zM311 498h486l-219 661zM422 1683l141 3l146 -187l-140 -2q-25 34 -76 97t-71 89z" />
<glyph unicode="&#xc1;" horiz-adv-x="1085" d="M20 0q111 254 302.5 767.5t224.5 598.5q13 21 27 26t27 -2t30 -24q59 -226 202 -679t232 -687h-131q-19 82 -111 379h-542q-11 -32 -39.5 -112t-48.5 -142t-37 -125h-136zM311 498h486l-219 661zM422 1499l145 187l142 -3q-30 -41 -148 -186z" />
<glyph unicode="&#xc2;" horiz-adv-x="1085" d="M20 0q111 254 302.5 767.5t224.5 598.5q13 21 27 26t27 -2t30 -24q59 -226 202 -679t232 -687h-131q-19 82 -111 379h-542q-11 -32 -39.5 -112t-48.5 -142t-37 -125h-136zM283 1497l270 217l248 -217h-144l-104 100l-123 -100h-147zM311 498h486l-219 661z" />
<glyph unicode="&#xc3;" horiz-adv-x="1085" d="M20 0q111 254 302.5 767.5t224.5 598.5q13 21 27 26t27 -2t30 -24q59 -226 202 -679t232 -687h-131q-19 82 -111 379h-542q-11 -32 -39.5 -112t-48.5 -142t-37 -125h-136zM311 498h486l-219 661zM397 1509q12 47 49 84t76 37q34 0 66 -35q3 -3 9.5 -10t10.5 -11t6 -5 q1 -1 4 3t6.5 11.5t6 14t6.5 16.5l82 -23q-11 -47 -68.5 -78.5t-95.5 0.5q-7 5 -17.5 20t-17.5 19q-21 -7 -39 -43h-84z" />
<glyph unicode="&#xc4;" horiz-adv-x="1085" d="M20 0q111 254 302.5 767.5t224.5 598.5q13 21 27 26t27 -2t30 -24q59 -226 202 -679t232 -687h-131q-19 82 -111 379h-542q-11 -32 -39.5 -112t-48.5 -142t-37 -125h-136zM311 498h486l-219 661zM373 1499v154h129v-154h-129zM588 1499v154h129v-154h-129z" />
<glyph unicode="&#xc5;" horiz-adv-x="1085" d="M20 0q111 254 302.5 767.5t224.5 598.5q13 21 27 26t27 -2t30 -24q59 -226 202 -679t232 -687h-131q-19 82 -111 379h-542q-11 -32 -39.5 -112t-48.5 -142t-37 -125h-136zM311 498h486l-219 661zM457 1610q9 45 45.5 75.5t81.5 30.5q46 0 76 -33t24 -77q-6 -43 -43 -75 t-84 -32t-76 32.5t-24 78.5zM541 1606q-1 -13 7.5 -23t20.5 -10q15 0 27.5 11t15.5 26q2 14 -6.5 23t-21.5 9q-15 0 -27.5 -10.5t-15.5 -25.5z" />
<glyph unicode="&#xc6;" horiz-adv-x="1775" d="M20 0q111 254 302.5 767.5t224.5 598.5q13 21 27 26t27 -2t30 -24q46 -179 142.5 -494t187.5 -579q23 499 -31 1098q66 -2 215 -2q163 0 409 4h86q47 0 50 -37q16 -102 16 -215q0 -19 -39 -21.5t-43 13.5q-16 68 -38 101.5t-72.5 51t-143.5 17.5l-225 4q-16 0 -34.5 -6 t-18.5 -15l-9 -516q275 0 469 12q18 2 58 2q8 -4 7 -29t-13 -54t-25 -29q-23 0 -33 2q-92 10 -463 12q0 -388 17 -555q4 -20 25.5 -30.5t45.5 -10.5l228 2q62 0 103.5 6.5t68.5 17.5t46.5 35.5t30 48t25.5 68.5q5 20 43.5 18t38.5 -22q0 -62 -24 -225q-8 -39 -50 -39h-747 q-19 82 -111 379h-542q-15 -59 -60.5 -183t-64.5 -196h-136zM311 498h486l-219 661z" />
<glyph unicode="&#xc7;" horiz-adv-x="1015" d="M61 690q0 200 82.5 361t229 251.5t329.5 90.5q142 0 218.5 -30t83.5 -69q12 -105 12 -194q0 -19 -38 -22t-42 16q-12 51 -26 85t-40.5 68t-72 51t-109.5 17q-128 0 -231.5 -88.5t-159 -230t-55.5 -302.5q0 -172 49.5 -309t151.5 -221t241 -84q120 0 201 65v-127 q-54 -15 -180 -18q73 -59 73 -117q0 -44 -41 -78.5t-99.5 -51.5t-119.5 -17q-104 0 -104 33q0 15 34 29t89 20q65 4 104 32.5t39 61.5q0 29 -36 48.5t-105 19.5q-53 0 -68 49q-197 62 -303.5 237t-106.5 424z" />
<glyph unicode="&#xc8;" horiz-adv-x="927" d="M82 1391q143 -6 711 2q46 0 49 -39q16 -98 16 -213q0 -19 -39 -21.5t-43 13.5q-10 43 -21.5 66.5t-40 47t-79 34.5t-132 18t-206.5 8q-16 0 -34.5 -6t-18.5 -15l-8 -516q84 0 258 7t268 7q8 -4 7 -29t-13 -54t-25 -29q-81 0 -244.5 6.5t-250.5 7.5v-229q0 -169 16 -326 q4 -20 26 -30.5t46 -10.5l227 2q62 0 103.5 6.5t68.5 17t46 34.5t30 48.5t26 69.5q5 20 43.5 18t38.5 -22q0 -62 -24 -225q-8 -39 -49 -39h-746q60 600 -6 1391zM258 1683l141 3l146 -187l-139 -2q-25 34 -76 96.5t-72 89.5z" />
<glyph unicode="&#xc9;" horiz-adv-x="927" d="M82 1391q143 -6 711 2q46 0 49 -39q16 -98 16 -213q0 -19 -39 -21.5t-43 13.5q-10 43 -21.5 66.5t-40 47t-79 34.5t-132 18t-206.5 8q-16 0 -34.5 -6t-18.5 -15l-8 -516q84 0 258 7t268 7q8 -4 7 -29t-13 -54t-25 -29q-81 0 -244.5 6.5t-250.5 7.5v-229q0 -169 16 -326 q4 -20 26 -30.5t46 -10.5l227 2q62 0 103.5 6.5t68.5 17t46 34.5t30 48.5t26 69.5q5 20 43.5 18t38.5 -22q0 -62 -24 -225q-8 -39 -49 -39h-746q60 600 -6 1391zM258 1499l145 187l142 -3q-30 -41 -148 -186z" />
<glyph unicode="&#xca;" horiz-adv-x="927" d="M82 1391q143 -6 711 2q46 0 49 -39q16 -98 16 -213q0 -19 -39 -21.5t-43 13.5q-10 43 -21.5 66.5t-40 47t-79 34.5t-132 18t-206.5 8q-16 0 -34.5 -6t-18.5 -15l-8 -516q84 0 258 7t268 7q8 -4 7 -29t-13 -54t-25 -29q-81 0 -244.5 6.5t-250.5 7.5v-229q0 -169 16 -326 q4 -20 26 -30.5t46 -10.5l227 2q62 0 103.5 6.5t68.5 17t46 34.5t30 48.5t26 69.5q5 20 43.5 18t38.5 -22q0 -62 -24 -225q-8 -39 -49 -39h-746q60 600 -6 1391zM160 1497l270 217l248 -217h-143l-105 100l-123 -100h-147z" />
<glyph unicode="&#xcb;" horiz-adv-x="927" d="M82 1391q143 -6 711 2q46 0 49 -39q16 -98 16 -213q0 -19 -39 -21.5t-43 13.5q-10 43 -21.5 66.5t-40 47t-79 34.5t-132 18t-206.5 8q-16 0 -34.5 -6t-18.5 -15l-8 -516q84 0 258 7t268 7q8 -4 7 -29t-13 -54t-25 -29q-81 0 -244.5 6.5t-250.5 7.5v-229q0 -169 16 -326 q4 -20 26 -30.5t46 -10.5l227 2q62 0 103.5 6.5t68.5 17t46 34.5t30 48.5t26 69.5q5 20 43.5 18t38.5 -22q0 -62 -24 -225q-8 -39 -49 -39h-746q60 600 -6 1391zM270 1499v154h129v-154h-129zM485 1499v154h129v-154h-129z" />
<glyph unicode="&#xcc;" horiz-adv-x="442" d="M33 1683l141 3l145 -187l-139 -2q-25 34 -76 97t-71 89zM82 1391q102 -4 256 2q9 0 9 -36t-9 -36q-88 -4 -96 -31q-13 -160 -13 -452v-205q0 -391 17 -527q3 -17 27 -23.5t69 -10.5q20 -3 18 -37.5t-20 -34.5h-254q25 312 25 643v176q0 177 -29 572z" />
<glyph unicode="&#xcd;" horiz-adv-x="442" d="M33 1499l145 187l141 -3q-42 -56 -147 -186zM82 1391q102 -4 256 2q9 0 9 -36t-9 -36q-88 -4 -96 -31q-13 -160 -13 -452v-205q0 -391 17 -527q3 -17 27 -23.5t69 -10.5q20 -3 18 -37.5t-20 -34.5h-254q25 312 25 643v176q0 177 -29 572z" />
<glyph unicode="&#xce;" horiz-adv-x="442" d="M-66 1497l271 217l248 -217h-144l-104 100l-123 -100h-148zM82 1391q102 -4 256 2q9 0 9 -36t-9 -36q-88 -4 -96 -31q-13 -160 -13 -452v-205q0 -391 17 -527q3 -17 27 -23.5t69 -10.5q20 -3 18 -37.5t-20 -34.5h-254q25 312 25 643v176q0 177 -29 572z" />
<glyph unicode="&#xcf;" horiz-adv-x="442" d="M25 1499v154h129v-154h-129zM82 1391q102 -4 256 2q9 0 9 -36t-9 -36q-88 -4 -96 -31q-13 -160 -13 -452v-205q0 -391 17 -527q3 -17 27 -23.5t69 -10.5q20 -3 18 -37.5t-20 -34.5h-254q25 312 25 643v176q0 177 -29 572zM240 1499v154h129v-154h-129z" />
<glyph unicode="&#xd0;" horiz-adv-x="1071" d="M0 598v109h117q0 330 -33 659q140 27 338 27q105 0 195.5 -39.5t154 -106.5t109 -156.5t67 -190t21.5 -206.5q0 -133 -35 -255.5t-101.5 -221.5t-174 -158t-240.5 -59q-238 0 -332 2q26 324 29 596h-115zM231 598q0 -387 19 -477q3 -17 59.5 -26t132.5 -9 q98 0 177.5 51.5t128 138t74.5 193.5t26 223q0 118 -26.5 227.5t-76 197.5t-128.5 141t-177 53q-197 0 -200 -33q-9 -66 -9 -571h277v-109h-277z" />
<glyph unicode="&#xd1;" horiz-adv-x="1017" d="M82 0q16 289 16 662q0 330 -16 708q6 8 43 20t84 7.5t65 -37.5q137 -250 263 -473q31 -55 101.5 -179.5t114.5 -204t85 -157.5q0 807 -19 940q-1 20 -22 27.5t-78 9.5q-9 0 -8.5 35t8.5 35q49 -2 217 -2q-14 -376 -14 -551v-840h-80l-156 311q-253 522 -493 901 q0 -967 20 -1110q7 -18 35 -26t55 -8q10 0 9.5 -34t-9.5 -34h-221zM373 1509q12 47 49 84t76 37q34 0 65 -35q25 -25 27 -26q4 -2 19 37l1.5 4.5t1.5 3.5l82 -23q-11 -47 -68.5 -78.5t-95.5 0.5q-7 5 -17 20t-17 19q-21 -7 -39 -43h-84z" />
<glyph unicode="&#xd2;" horiz-adv-x="1034" d="M61 723q0 131 30.5 250t88 213.5t147.5 150.5t201 56q109 0 199 -56t147 -150t88 -213.5t31 -250.5q0 -132 -31 -259.5t-88 -231.5t-148 -168t-200 -64t-199.5 64t-147 168.5t-87.5 231.5t-31 259zM236 723q0 -113 20.5 -223.5t59 -204t102 -151.5t141.5 -58h2 q77 0 140 58t101 151.5t58.5 204t20.5 223.5q0 111 -20.5 213.5t-59 186.5t-101.5 134t-141 50t-141.5 -50t-102 -134t-59 -186.5t-20.5 -213.5zM381 1683l141 3l146 -187l-140 -2q-25 34 -76 97t-71 89z" />
<glyph unicode="&#xd3;" horiz-adv-x="1034" d="M61 723q0 131 30.5 250t88 213.5t147.5 150.5t201 56q109 0 199 -56t147 -150t88 -213.5t31 -250.5q0 -132 -31 -259.5t-88 -231.5t-148 -168t-200 -64t-199.5 64t-147 168.5t-87.5 231.5t-31 259zM236 723q0 -113 20.5 -223.5t59 -204t102 -151.5t141.5 -58h2 q77 0 140 58t101 151.5t58.5 204t20.5 223.5q0 111 -20.5 213.5t-59 186.5t-101.5 134t-141 50t-141.5 -50t-102 -134t-59 -186.5t-20.5 -213.5zM381 1499l145 187l142 -3q-30 -41 -148 -186z" />
<glyph unicode="&#xd4;" horiz-adv-x="1034" d="M61 723q0 131 30.5 250t88 213.5t147.5 150.5t201 56q109 0 199 -56t147 -150t88 -213.5t31 -250.5q0 -132 -31 -259.5t-88 -231.5t-148 -168t-200 -64t-199.5 64t-147 168.5t-87.5 231.5t-31 259zM236 723q0 -113 20.5 -223.5t59 -204t102 -151.5t141.5 -58h2 q77 0 140 58t101 151.5t58.5 204t20.5 223.5q0 111 -20.5 213.5t-59 186.5t-101.5 134t-141 50t-141.5 -50t-102 -134t-59 -186.5t-20.5 -213.5zM236 1497l270 217l248 -217h-144l-104 100l-123 -100h-147z" />
<glyph unicode="&#xd5;" horiz-adv-x="1034" d="M61 723q0 131 30.5 250t88 213.5t147.5 150.5t201 56q109 0 199 -56t147 -150t88 -213.5t31 -250.5q0 -132 -31 -259.5t-88 -231.5t-148 -168t-200 -64t-199.5 64t-147 168.5t-87.5 231.5t-31 259zM236 723q0 -113 20.5 -223.5t59 -204t102 -151.5t141.5 -58h2 q77 0 140 58t101 151.5t58.5 204t20.5 223.5q0 111 -20.5 213.5t-59 186.5t-101.5 134t-141 50t-141.5 -50t-102 -134t-59 -186.5t-20.5 -213.5zM352 1509q12 47 49 84t76 37q35 0 66 -35q3 -3 9.5 -10t10.5 -11t6 -5q1 -1 4 3t6.5 11.5t6 14t6.5 16.5l82 -23 q-11 -47 -68.5 -78.5t-95.5 0.5q-7 5 -17.5 20t-17.5 19q-21 -7 -39 -43h-84z" />
<glyph unicode="&#xd6;" horiz-adv-x="1034" d="M61 723q0 131 30.5 250t88 213.5t147.5 150.5t201 56q109 0 199 -56t147 -150t88 -213.5t31 -250.5q0 -132 -31 -259.5t-88 -231.5t-148 -168t-200 -64t-199.5 64t-147 168.5t-87.5 231.5t-31 259zM236 723q0 -113 20.5 -223.5t59 -204t102 -151.5t141.5 -58h2 q77 0 140 58t101 151.5t58.5 204t20.5 223.5q0 111 -20.5 213.5t-59 186.5t-101.5 134t-141 50t-141.5 -50t-102 -134t-59 -186.5t-20.5 -213.5zM311 1499v154h129v-154h-129zM526 1499v154h129v-154h-129z" />
<glyph unicode="&#xd7;" horiz-adv-x="1015" d="M102 924l88 71l316 -295l328 295l75 -71l-327 -285l331 -299l-114 -57l-293 286l-293 -288l-98 75l307 277z" />
<glyph unicode="&#xd8;" horiz-adv-x="1034" d="M61 723q0 131 30.5 250t88 213.5t147.5 150.5t201 56q79 0 158 -35q5 16 17 47.5t16 46.5h125l-58 -162q97 -91 152 -244t55 -323q0 -132 -31 -259.5t-88 -231.5t-148 -168t-200 -64q-92 0 -166 41l-36 -107h-123l61 183q-95 100 -148 265t-53 341zM236 723 q0 -112 22 -228.5t61 -205.5l340 993q-52 25 -100 25q-78 0 -141.5 -50t-102 -134t-59 -186.5t-20.5 -213.5zM399 158q34 -31 77.5 -51.5t82.5 -20.5h2q77 0 140 58t101 151.5t58.5 204t20.5 223.5q0 142 -31 267.5t-92 205.5z" />
<glyph unicode="&#xd9;" horiz-adv-x="1013" d="M61 1391q211 0 256 2q9 0 9 -36t-9 -36q-100 -5 -102 -31q-16 -150 -16 -604q0 -608 319 -608q166 0 259 149t93 416q0 498 -28 645q-9 28 -101 33q-9 0 -8.5 36t8.5 36q164 -4 232 -4q-17 -188 -17 -345q0 -76 5.5 -238.5t5.5 -256.5q0 -116 -28 -214.5t-83 -174 t-143.5 -118t-202.5 -42.5q-218 0 -328 149t-110 410q0 42 4 134t4 145q0 420 -19 553zM279 1683l141 3l145 -187l-139 -2q-25 34 -76 97t-71 89z" />
<glyph unicode="&#xda;" horiz-adv-x="1013" d="M61 1391q211 0 256 2q9 0 9 -36t-9 -36q-100 -5 -102 -31q-16 -150 -16 -604q0 -608 319 -608q166 0 259 149t93 416q0 498 -28 645q-9 28 -101 33q-9 0 -8.5 36t8.5 36q164 -4 232 -4q-17 -188 -17 -345q0 -76 5.5 -238.5t5.5 -256.5q0 -116 -28 -214.5t-83 -174 t-143.5 -118t-202.5 -42.5q-218 0 -328 149t-110 410q0 42 4 134t4 145q0 420 -19 553zM279 1499l145 187l141 -3q-42 -56 -147 -186z" />
<glyph unicode="&#xdb;" horiz-adv-x="1013" d="M61 1391q211 0 256 2q9 0 9 -36t-9 -36q-100 -5 -102 -31q-16 -150 -16 -604q0 -608 319 -608q166 0 259 149t93 416q0 498 -28 645q-9 28 -101 33q-9 0 -8.5 36t8.5 36q164 -4 232 -4q-17 -188 -17 -345q0 -76 5.5 -238.5t5.5 -256.5q0 -116 -28 -214.5t-83 -174 t-143.5 -118t-202.5 -42.5q-218 0 -328 149t-110 410q0 42 4 134t4 145q0 420 -19 553zM242 1497l270 217l248 -217h-144l-104 100l-123 -100h-147z" />
<glyph unicode="&#xdc;" horiz-adv-x="1013" d="M61 1391q211 0 256 2q9 0 9 -36t-9 -36q-100 -5 -102 -31q-16 -150 -16 -604q0 -608 319 -608q166 0 259 149t93 416q0 498 -28 645q-9 28 -101 33q-9 0 -8.5 36t8.5 36q164 -4 232 -4q-17 -188 -17 -345q0 -76 5.5 -238.5t5.5 -256.5q0 -116 -28 -214.5t-83 -174 t-143.5 -118t-202.5 -42.5q-218 0 -328 149t-110 410q0 42 4 134t4 145q0 420 -19 553zM332 1499v154h129v-154h-129zM547 1499v154h129v-154h-129z" />
<glyph unicode="&#xdd;" horiz-adv-x="1050" d="M0 1389q274 0 299 2q26 -18 21 -43t-23 -27q-51 0 -55 -14q21 -57 46 -113.5t59 -123.5t55 -106.5t67.5 -124t62.5 -114.5q209 323 316 584q1 4 -4 6.5t-15.5 3.5t-22.5 1.5t-28 0.5q-10 0 -9.5 35t9.5 35q112 -5 273 -2l-76 -97q-126 -164 -346 -559l-62 -112 q0 -469 19 -621h-172q14 219 14 631q-176 380 -428 758zM360 1499l146 187l141 -3q-42 -56 -147 -186z" />
<glyph unicode="&#xde;" horiz-adv-x="825" d="M82 1393h104q0 -268 7 -379q80 119 251 119q142 -3 225.5 -87.5t90 -203t-28 -236.5t-128 -200t-210.5 -82q-125 0 -192 36q0 -6 10 -358q-7 0 -44 -1t-79 -1q37 528 -6 1393zM201 778l14 -301q16 -32 62.5 -54t113.5 -22q75 2 131.5 46t84.5 108.5t33 143t-15 148.5 t-70 125.5t-121 74.5q-76 3 -133.5 -40.5t-82 -106t-17.5 -122.5z" />
<glyph unicode="&#xdf;" horiz-adv-x="800" d="M82 1366q85 28 177 32t177 -17t153 -63.5t109 -114t41 -161.5q0 -115 -59.5 -213t-171.5 -143q111 -35 168 -114t57 -179q0 -71 -31 -140.5t-86.5 -126t-141.5 -91.5t-187 -35l2 260q1 11 28 17t53 1t25 -20v-180q108 6 170 89t62 195q0 54 -17.5 104t-50.5 90.5 t-87.5 64t-123.5 22.5q-143 -3 -143 -10l-8 -633h-111q36 687 -4 1366zM205 731q0 -15 145 -12q89 -4 153 40.5t93 112.5t29 148q0 70 -24.5 129t-66.5 96.5t-94.5 57t-113.5 14.5t-119 -35z" />
<glyph unicode="&#xe0;" d="M61 283q0 121 84.5 188.5t219.5 67.5q86 0 129 -15q0 102 -41.5 158t-135.5 66q-15 5 -16 27.5t21 33.5q139 -7 194 -60t55 -171q0 -91 -2 -134q-10 -249 27 -444h-59q-25 0 -33 25q-2 6 -2 32q-60 -57 -178 -57q-119 0 -191 84t-72 199zM197 1069l141 2l145 -186 l-139 -2q-25 34 -76 97t-71 89zM203 283q0 -84 38 -148.5t107 -64.5q57 0 91.5 24t41.5 53q12 36 13.5 84.5t-4 119.5t-5.5 95q-40 31 -108 31q-82 0 -128 -51.5t-46 -142.5z" />
<glyph unicode="&#xe1;" d="M61 283q0 121 84.5 188.5t219.5 67.5q86 0 129 -15q0 102 -41.5 158t-135.5 66q-15 5 -16 27.5t21 33.5q139 -7 194 -60t55 -171q0 -91 -2 -134q-10 -249 27 -444h-59q-25 0 -33 25q-2 6 -2 32q-60 -57 -178 -57q-119 0 -191 84t-72 199zM197 885l145 186l141 -2 q-42 -56 -147 -186zM203 283q0 -84 38 -148.5t107 -64.5q57 0 91.5 24t41.5 53q12 36 13.5 84.5t-4 119.5t-5.5 95q-40 31 -108 31q-82 0 -128 -51.5t-46 -142.5z" />
<glyph unicode="&#xe2;" d="M61 283q0 121 84.5 188.5t219.5 67.5q86 0 129 -15q0 102 -41.5 158t-135.5 66q-15 5 -16 27.5t21 33.5q139 -7 194 -60t55 -171q0 -91 -2 -134q-10 -249 27 -444h-59q-25 0 -33 25q-2 6 -2 32q-60 -57 -178 -57q-119 0 -191 84t-72 199zM98 883l271 217l247 -217h-143 l-104 100l-123 -100h-148zM203 283q0 -84 38 -148.5t107 -64.5q57 0 91.5 24t41.5 53q12 36 13.5 84.5t-4 119.5t-5.5 95q-40 31 -108 31q-82 0 -128 -51.5t-46 -142.5z" />
<glyph unicode="&#xe3;" d="M61 283q0 121 84.5 188.5t219.5 67.5q86 0 129 -15q0 102 -41.5 158t-135.5 66q-15 5 -16 27.5t21 33.5q139 -7 194 -60t55 -171q0 -91 -2 -134q-10 -249 27 -444h-59q-25 0 -33 25q-2 6 -2 32q-60 -57 -178 -57q-119 0 -191 84t-72 199zM188 895q12 47 49 84t76 37 q26 0 53.5 -28.5t39.5 -33.5q4 -2 19 37l1.5 4.5t1.5 3.5l82 -22q-11 -47 -68.5 -78.5t-95.5 0.5q-7 5 -17.5 20t-17.5 19q-21 -7 -39 -43h-84zM203 283q0 -84 38 -148.5t107 -64.5q57 0 91.5 24t41.5 53q12 36 13.5 84.5t-4 119.5t-5.5 95q-40 31 -108 31q-82 0 -128 -51.5 t-46 -142.5z" />
<glyph unicode="&#xe4;" d="M61 283q0 121 84.5 188.5t219.5 67.5q86 0 129 -15q0 102 -41.5 158t-135.5 66q-15 5 -16 27.5t21 33.5q139 -7 194 -60t55 -171q0 -91 -2 -134q-10 -249 27 -444h-59q-25 0 -33 25q-2 6 -2 32q-60 -57 -178 -57q-119 0 -191 84t-72 199zM188 881v153h129v-153h-129z M203 283q0 -84 38 -148.5t107 -64.5q57 0 91.5 24t41.5 53q12 36 13.5 84.5t-4 119.5t-5.5 95q-40 31 -108 31q-82 0 -128 -51.5t-46 -142.5zM403 881v153h129v-153h-129z" />
<glyph unicode="&#xe5;" d="M61 283q0 121 84.5 188.5t219.5 67.5q86 0 129 -15q0 102 -41.5 158t-135.5 66q-15 5 -16 27.5t21 33.5q139 -7 194 -60t55 -171q0 -91 -2 -134q-10 -249 27 -444h-59q-25 0 -33 25q-2 6 -2 32q-60 -57 -178 -57q-119 0 -191 84t-72 199zM203 283q0 -84 38 -148.5 t107 -64.5q57 0 91.5 24t41.5 53q12 36 13.5 84.5t-4 119.5t-5.5 95q-40 31 -108 31q-82 0 -128 -51.5t-46 -142.5zM231 995q9 45 45.5 76t81.5 31q46 0 76.5 -33.5t24.5 -77.5q-6 -43 -43 -74.5t-84 -31.5t-76.5 32t-24.5 78zM315 991q-1 -13 8 -23t21 -10q15 0 27.5 11 t15.5 26q2 14 -7 23.5t-22 9.5q-15 0 -27.5 -11t-15.5 -26z" />
<glyph unicode="&#xe6;" horiz-adv-x="1118" d="M61 283q0 121 84.5 188.5t219.5 67.5q86 0 129 -15q0 102 -41.5 158t-135.5 66q-13 2 -17.5 16.5t2 29t20.5 15.5q106 -6 161.5 -36.5t75.5 -96.5q88 135 236 135q234 0 241 -410h-426q2 -166 53 -253t164 -87q63 0 119 29q17 13 26 -17q9 -36 -5 -56q-4 -5 -9 -7 q-41 -10 -137 -10q-162 0 -241 88l16 -88h-59q-25 0 -33 25q-2 6 -2 32q-60 -57 -178 -57q-119 0 -191 84t-72 199zM203 283q0 -84 38 -148.5t107 -64.5q57 0 91.5 24t41.5 53q8 24 8 113q0 26 -4 186q-40 31 -108 31q-82 0 -128 -51.5t-46 -142.5zM610 465h320q12 0 12 6 q-2 123 -34.5 198.5t-100.5 75.5q-82 0 -136.5 -78.5t-60.5 -201.5z" />
<glyph unicode="&#xe7;" horiz-adv-x="679" d="M61 391q0 114 43.5 206.5t129 149t198.5 56.5q108 0 161 -34.5t62 -80.5q9 -58 0 -113q-3 -12 -31.5 -13.5t-31.5 7.5q-15 73 -56 120t-110 46q-70 0 -123 -49t-79 -126.5t-25 -168.5q0 -146 60 -241t165 -95q72 0 121 49q21 4 35.5 -11t9.5 -40t-33 -45q-20 -9 -51 -14 l24 -23q76 -64 76 -118q0 -65 -82.5 -107.5t-177.5 -42.5q-52 0 -78 10t-26 25t34 28t89 19q65 6 104 34t39 60q0 30 -35.5 50t-105.5 20q-32 0 -50.5 17t-23.5 42q-114 35 -173 134.5t-59 248.5z" />
<glyph unicode="&#xe8;" horiz-adv-x="628" d="M61 416q0 173 85 284t221 111q234 0 241 -410h-426q2 -166 53 -253t164 -87q63 0 119 29q17 8 26 -22q10 -35 -7 -52q-2 -3 -5 -4q-50 -12 -139 -12q-96 0 -162 30t-102.5 88t-52 130t-15.5 168zM156 1069l141 2l145 -186l-139 -2q-25 34 -76 97t-71 89zM182 465h320 q12 0 12 6q-2 123 -34.5 198.5t-100.5 75.5q-82 0 -136.5 -78.5t-60.5 -201.5z" />
<glyph unicode="&#xe9;" horiz-adv-x="628" d="M61 416q0 173 85 284t221 111q234 0 241 -410h-426q2 -166 53 -253t164 -87q63 0 119 29q17 8 26 -22q10 -35 -7 -52q-2 -3 -5 -4q-50 -12 -139 -12q-96 0 -162 30t-102.5 88t-52 130t-15.5 168zM156 885l145 186l141 -2q-42 -56 -147 -186zM182 465h320q12 0 12 6 q-2 123 -34.5 198.5t-100.5 75.5q-82 0 -136.5 -78.5t-60.5 -201.5z" />
<glyph unicode="&#xea;" horiz-adv-x="628" d="M61 416q0 173 85 284t221 111q234 0 241 -410h-426q2 -166 53 -253t164 -87q63 0 119 29q17 8 26 -22q10 -35 -7 -52q-2 -3 -5 -4q-50 -12 -139 -12q-96 0 -162 30t-102.5 88t-52 130t-15.5 168zM61 883l271 217l248 -217h-144l-104 100l-123 -100h-148zM182 465h320 q12 0 12 6q-2 123 -34.5 198.5t-100.5 75.5q-82 0 -136.5 -78.5t-60.5 -201.5z" />
<glyph unicode="&#xeb;" horiz-adv-x="628" d="M61 416q0 173 85 284t221 111q234 0 241 -410h-426q2 -166 53 -253t164 -87q63 0 119 29q17 8 26 -22q10 -35 -7 -52q-2 -3 -5 -4q-50 -12 -139 -12q-96 0 -162 30t-102.5 88t-52 130t-15.5 168zM147 881v153h129v-153h-129zM182 465h320q12 0 12 6q-2 123 -34.5 198.5 t-100.5 75.5q-82 0 -136.5 -78.5t-60.5 -201.5zM362 881v153h130v-153h-130z" />
<glyph unicode="&#xec;" horiz-adv-x="409" d="M33 1059l141 2l145 -187l-139 -2q-25 34 -76.5 98.5t-70.5 88.5zM145 811l91 2q25 0 35 -10t10 -31l-9 -477q0 -27 15 -197q10 -25 90 -30q14 -3 11.5 -35.5t-17.5 -32.5h-224q4 46 -2 811z" />
<glyph unicode="&#xed;" horiz-adv-x="409" d="M33 874l145 187l141 -2q-51 -69 -147 -187zM145 811l91 2q25 0 35 -10t10 -31l-9 -477q0 -27 15 -197q10 -25 90 -30q14 -3 11.5 -35.5t-17.5 -32.5h-224q1 52 2.5 150t2.5 145.5t2 124.5t0.5 121.5t-1 99.5t-3 95.5t-5.5 74.5z" />
<glyph unicode="&#xee;" horiz-adv-x="409" d="M-66 872l271 218l248 -218h-144l-104 101l-123 -101h-148zM145 811l91 2q25 0 35 -10t10 -31l-9 -477q0 -27 15 -197q10 -25 90 -30q14 -2 11.5 -35t-17.5 -33h-224q1 51 3 171t2.5 166t1.5 134.5t0 135t-3 103.5t-6 101z" />
<glyph unicode="&#xef;" horiz-adv-x="409" d="M25 870v154h129v-154h-129zM145 811l91 2q25 0 35 -10t10 -31l-9 -477q0 -27 15 -197q10 -25 90 -30q14 -3 11.5 -35.5t-17.5 -32.5h-224q7 50 9.5 97t1 227.5t-12.5 486.5zM240 870v154h129v-154h-129z" />
<glyph unicode="&#xf0;" horiz-adv-x="860" d="M41 479q0 110 41 209t119.5 162t175.5 63q86 0 156 -29.5t114 -70.5q-23 215 -127 350q-22 -20 -64.5 -56t-62.5 -54q-18 -15 -40.5 -3.5t-29.5 32.5t3 38l129 113q-139 104 -283 74l-76 86q154 0 252 -26t172 -79q111 100 115 103q28 14 53 -13.5t12 -56.5l-106 -94 q105 -117 155 -289t50 -367q0 -273 -98 -422t-281 -149q-84 0 -154 40.5t-116 108.5t-74 152.5t-35 177.5zM156 477q9 -159 92 -275t190 -116q66 0 114.5 44t72.5 111t34 146.5t5.5 151t-17.5 123.5q-16 59 -88 114t-168 55q-76 0 -132.5 -50t-82.5 -130t-20 -174z" />
<glyph unicode="&#xf1;" horiz-adv-x="681" d="M82 809h94q35 0 35 -29v-80q69 111 197 111q65 0 107.5 -32t74.5 -105q10 -98 10 -299q0 -231 21 -375h-99q0 28 2.5 97t3 129t0 138.5t-8.5 139.5t-21.5 116t-40 85t-62.5 30q-59 0 -102.5 -44t-63.5 -111q-17 -81 -19.5 -168.5t3 -223.5t6.5 -188h-131q0 8 1 24.5 t2.5 39.5t2.5 36q30 383 -12 709zM188 895q12 47 49 84t76 37q35 0 66 -35l27 -27q4 -2 19 37l1.5 4.5t1.5 3.5l82 -22q-11 -47 -68.5 -78.5t-95.5 0.5q-7 5 -17.5 20t-17.5 19q-21 -7 -39 -43h-84z" />
<glyph unicode="&#xf2;" horiz-adv-x="710" d="M61 408q0 168 79 285.5t214 117.5q92 0 160 -57t101.5 -147t33.5 -199q0 -169 -79.5 -288.5t-217.5 -119.5q-90 0 -157.5 58t-100.5 149.5t-33 200.5zM156 1069l141 2l145 -186l-139 -2q-26 36 -78 100t-69 86zM201 408q0 -91 18.5 -165.5t59.5 -122.5t98 -48h2 q55 0 96.5 48t61.5 123t20 165q0 138 -48 235.5t-132 97.5q-58 0 -99 -48t-59 -121.5t-18 -163.5z" />
<glyph unicode="&#xf3;" horiz-adv-x="710" d="M61 408q0 168 79 285.5t214 117.5q92 0 160 -57t101.5 -147t33.5 -199q0 -169 -79.5 -288.5t-217.5 -119.5q-90 0 -157.5 58t-100.5 149.5t-33 200.5zM156 885l145 186l141 -2q-42 -56 -147 -186zM201 408q0 -91 18.5 -165.5t59.5 -122.5t98 -48h2q55 0 96.5 48t61.5 123 t20 165q0 138 -48 235.5t-132 97.5q-58 0 -99 -48t-59 -121.5t-18 -163.5z" />
<glyph unicode="&#xf4;" horiz-adv-x="710" d="M61 408q0 168 79 285.5t214 117.5q92 0 160 -57t101.5 -147t33.5 -199q0 -169 -79.5 -288.5t-217.5 -119.5q-90 0 -157.5 58t-100.5 149.5t-33 200.5zM78 883l270 217l248 -217h-143l-105 100l-123 -100h-147zM201 408q0 -91 18.5 -165.5t59.5 -122.5t98 -48h2 q55 0 96.5 48t61.5 123t20 165q0 138 -48 235.5t-132 97.5q-58 0 -99 -48t-59 -121.5t-18 -163.5z" />
<glyph unicode="&#xf5;" horiz-adv-x="710" d="M61 408q0 168 79 285.5t214 117.5q92 0 160 -57t101.5 -147t33.5 -199q0 -169 -79.5 -288.5t-217.5 -119.5q-90 0 -157.5 58t-100.5 149.5t-33 200.5zM168 895q12 47 49 84t76 37q26 0 53 -28.5t39 -33.5q1 -1 4 3t6.5 11.5t6 14t6.5 16.5l81 -22q-7 -30 -36.5 -56.5 t-63.5 -34t-63 12.5q-7 5 -17.5 20t-17.5 19q-21 -7 -39 -43h-84zM201 408q0 -91 18.5 -165.5t59.5 -122.5t98 -48h2q55 0 96.5 48t61.5 123t20 165q0 138 -48 235.5t-132 97.5q-58 0 -99 -48t-59 -121.5t-18 -163.5z" />
<glyph unicode="&#xf6;" horiz-adv-x="710" d="M61 408q0 168 79 285.5t214 117.5q92 0 160 -57t101.5 -147t33.5 -199q0 -169 -79.5 -288.5t-217.5 -119.5q-90 0 -157.5 58t-100.5 149.5t-33 200.5zM168 881v153h129v-153h-129zM201 408q0 -91 18.5 -165.5t59.5 -122.5t98 -48h2q55 0 96.5 48t61.5 123t20 165 q0 138 -48 235.5t-132 97.5q-58 0 -99 -48t-59 -121.5t-18 -163.5zM383 881v153h129v-153h-129z" />
<glyph unicode="&#xf7;" horiz-adv-x="1050" d="M102 621v127h846v-127h-846zM401 1020q2 48 37.5 81.5t87.5 33.5q47 0 81 -34t34 -81q-2 -46 -37.5 -78.5t-87.5 -32.5q-46 0 -80.5 32t-34.5 79zM408 403q0 46 36 78.5t86 32.5q46 0 81 -33t34 -78q-2 -48 -37.5 -81t-87.5 -33q-46 0 -79.5 33.5t-32.5 80.5z" />
<glyph unicode="&#xf8;" horiz-adv-x="710" d="M61 410q0 108 33 198t101 147.5t159 57.5q53 0 101 -20q3 10 10.5 28.5t9.5 26.5h92l-41 -105q60 -54 91.5 -141.5t31.5 -191.5q0 -109 -33 -200.5t-102 -150.5t-162 -59q-48 0 -88 16l-31 -82h-94l47 134q-58 55 -91.5 147t-33.5 195zM201 410q0 -120 35 -213 q189 516 196 534q-21 12 -55 12q-58 0 -99 -48t-59 -121.5t-18 -163.5zM297 102q32 -28 80 -28q84 0 132 98t48 238q0 160 -57 252q-196 -540 -203 -560z" />
<glyph unicode="&#xf9;" horiz-adv-x="745" d="M61 811h105q20 0 24.5 -11t-0.5 -30q0 -5 -1 -19t-1 -18q-22 -296 5 -447q36 -208 155 -206q70 0 126 48.5t75 111.5v-2q14 133 6 428l-6 145h102q0 -3 -4.5 -43.5t-6.5 -69.5t-3.5 -99.5t0 -145.5t8.5 -194.5t19 -258.5h-62q-17 0 -26 9.5t-9 25.5v88q-35 -55 -92 -89 t-131 -34q-129 0 -198 75.5t-68 217.5q0 59 1 117.5t1 83.5q0 84 -19 317zM135 1069l141 2l146 -186l-139 -2q-25 36 -77 99t-71 87z" />
<glyph unicode="&#xfa;" horiz-adv-x="745" d="M61 811h105q20 0 24.5 -11t-0.5 -30q0 -5 -1 -19t-1 -18q-22 -296 5 -447q36 -208 155 -206q70 0 126 48.5t75 111.5v-2q14 133 6 428l-6 145h102q0 -3 -4.5 -43.5t-6.5 -69.5t-3.5 -99.5t0 -145.5t8.5 -194.5t19 -258.5h-62q-17 0 -26 9.5t-9 25.5v88q-35 -55 -92 -89 t-131 -34q-129 0 -198 75.5t-68 217.5q0 59 1 117.5t1 83.5q0 84 -19 317zM135 885l146 186l141 -2q-30 -40 -148 -186z" />
<glyph unicode="&#xfb;" horiz-adv-x="745" d="M61 811h105q20 0 24.5 -11t-0.5 -30q0 -5 -1 -19t-1 -18q-22 -296 5 -447q36 -208 155 -206q70 0 126 48.5t75 111.5v-2q14 133 6 428l-6 145h102q0 -3 -4.5 -43.5t-6.5 -69.5t-3.5 -99.5t0 -145.5t8.5 -194.5t19 -258.5h-62q-17 0 -26 9.5t-9 25.5v88q-35 -55 -92 -89 t-131 -34q-129 0 -198 75.5t-68 217.5q0 59 1 117.5t1 83.5q0 84 -19 317zM78 883l270 217l248 -217h-143l-105 100l-123 -100h-147z" />
<glyph unicode="&#xfc;" horiz-adv-x="745" d="M61 811h105q20 0 24.5 -11t-0.5 -30q0 -5 -1 -19t-1 -18q-22 -296 5 -447q36 -208 155 -206q70 0 126 48.5t75 111.5v-2q14 133 6 428l-6 145h102q0 -3 -4.5 -43.5t-6.5 -69.5t-3.5 -99.5t0 -145.5t8.5 -194.5t19 -258.5h-62q-17 0 -26 9.5t-9 25.5v88q-35 -55 -92 -89 t-131 -34q-129 0 -198 75.5t-68 217.5q0 59 1 117.5t1 83.5q0 84 -19 317zM168 881v153h129v-153h-129zM383 881v153h129v-153h-129z" />
<glyph unicode="&#xfd;" horiz-adv-x="759" d="M-158 -526q-7 10 8 38.5t25 30.5q68 -14 105 -14q65 0 118.5 46.5t124.5 174.5q46 82 63 132.5t25 117.5q-31 169 -131 416t-200 381h161q153 -355 246 -664q15 42 60 174t73 205q56 151 94 285h146q-57 -137 -80.5 -195t-36.5 -93t-25 -69.5t-61.5 -161.5t-130.5 -333 q-89 -214 -138 -299q-120 -208 -267 -218q-9 -1 -17 -1q-73 0 -162 47zM279 885l145 186l141 -2l-78 -98l-69 -88z" />
<glyph unicode="&#xfe;" horiz-adv-x="825" d="M82 1386h104q0 -533 7 -696q79 115 251 115q107 0 181 -50.5t106.5 -128t32.5 -173.5q0 -111 -43.5 -214t-130.5 -172t-197 -69q-117 0 -192 35q0 -235 10 -604q-7 0 -44 -1t-79 -1q14 428 8.5 1078.5t-14.5 880.5zM201 453q0 -130 1.5 -193.5t3.5 -78.5t7 -27q0 -1 1 -2 t1 -2q16 -31 62.5 -52.5t113.5 -21.5q80 0 138.5 49.5t85 123.5t26.5 159q0 72 -24.5 139t-73 114.5t-109.5 57.5q-112 4 -178.5 -83.5t-54.5 -182.5z" />
<glyph unicode="&#xff;" horiz-adv-x="759" d="M-158 -526q-7 10 8 38.5t25 30.5q68 -14 105 -14q65 0 118.5 46.5t124.5 174.5q46 82 63 132.5t25 117.5q-31 169 -131 416t-200 381h161q153 -355 246 -664q15 42 60 174t73 205q56 151 94 285h146q-57 -137 -80.5 -195t-36.5 -93t-25 -69.5t-61.5 -161.5t-130.5 -333 q-89 -214 -138 -299q-120 -208 -267 -218q-9 -1 -17 -1q-73 0 -162 47zM209 881v153h129v-153h-129zM424 881v153h129v-153h-129z" />
<glyph unicode="&#x152;" horiz-adv-x="2072" d="M72 696q0 304 141 510q145 207 449 207q265 0 397 -211v189h829v-166h-647v-424h596v-164h-596v-475h678v-164h-860v203q-133 -226 -397 -226q-297 0 -455 220q-135 193 -135 501zM272 682q0 -287 113 -424q114 -135 277 -135q158 0 272 135q115 136 115 449 q0 288 -115 421q-115 136 -272 136q-104 0 -199 -62q-191 -125 -191 -520z" />
<glyph unicode="&#x153;" horiz-adv-x="2002" d="M72 539q0 172 57 301q58 131 175.5 198.5t268.5 67.5q135 0 239 -56t157 -147q64 95 165 149t222 54q219 0 356 -152q138 -150 135 -450h-784q3 -167 92 -262q91 -97 223 -97q101 0 172 56.5t103 165.5l180 -27q-43 -165 -161 -254.5t-296 -89.5q-133 0 -239 52.5 t-168 146.5q-158 -199 -398 -199q-225 0 -362 143t-137 400zM256 553q0 -186 72 -283q91 -125 239 -125q129 0 221 105q93 110 93 305q0 191 -89 297t-225 106q-134 6 -224.5 -112t-86.5 -293zM1069 651h588q-12 148 -90 227.5t-199 79.5q-123 0 -205 -83t-94 -224z" />
<glyph unicode="&#x178;" horiz-adv-x="1050" d="M0 1389q274 0 299 2q26 -18 21 -43t-23 -27q-51 0 -55 -14q21 -57 46 -113.5t59 -123.5t55 -106.5t67.5 -124t62.5 -114.5q209 323 316 584q1 4 -4 6.5t-15.5 3.5t-22.5 1.5t-28 0.5q-10 0 -9.5 35t9.5 35q112 -5 273 -2l-76 -97q-126 -164 -346 -559l-62 -112 q0 -469 19 -621h-172q14 219 14 631q-176 380 -428 758zM311 1499v154h129v-154h-129zM526 1499v154h129v-154h-129z" />
<glyph unicode="&#x2c6;" horiz-adv-x="858" d="M72 1108l217 281h190l226 -281h-203l-111 170l-112 -170h-207z" />
<glyph unicode="&#x2dc;" horiz-adv-x="894" d="M72 1157q0 106 57 166q57 63 147 63q61 0 168 -55q61 -28 95 -28q33 0 49.5 18t23.5 68h129q-1 -112 -54.5 -170t-141.5 -58q-60 0 -166 56q-62 36 -98 36q-33 0 -54 -24q-22 -25 -22 -72h-133z" />
<glyph unicode="&#x2000;" horiz-adv-x="858" />
<glyph unicode="&#x2001;" horiz-adv-x="1716" />
<glyph unicode="&#x2002;" horiz-adv-x="858" />
<glyph unicode="&#x2003;" horiz-adv-x="1716" />
<glyph unicode="&#x2004;" horiz-adv-x="572" />
<glyph unicode="&#x2005;" horiz-adv-x="429" />
<glyph unicode="&#x2006;" horiz-adv-x="286" />
<glyph unicode="&#x2007;" horiz-adv-x="286" />
<glyph unicode="&#x2008;" horiz-adv-x="214" />
<glyph unicode="&#x2009;" horiz-adv-x="343" />
<glyph unicode="&#x200a;" horiz-adv-x="95" />
<glyph unicode="&#x2010;" horiz-adv-x="876" d="M102 580v106h672v-106h-672z" />
<glyph unicode="&#x2011;" horiz-adv-x="876" d="M102 580v106h672v-106h-672z" />
<glyph unicode="&#x2012;" horiz-adv-x="876" d="M102 580v106h672v-106h-672z" />
<glyph unicode="&#x2013;" horiz-adv-x="1363" d="M72 459v143h1138v-143h-1138z" />
<glyph unicode="&#x2014;" horiz-adv-x="2273" d="M72 459v143h2048v-143h-2048z" />
<glyph unicode="&#x2018;" horiz-adv-x="415" d="M104 1165q8 82 68.5 156t132.5 74q-36 -32 -53 -63t-12 -72q35 -6 56 -35t15 -64q-4 -41 -38 -68.5t-76 -27.5q-44 0 -70 28.5t-23 71.5z" />
<glyph unicode="&#x2019;" horiz-adv-x="415" d="M104 1298q4 41 38.5 69t76.5 28q44 0 69.5 -29t22.5 -72q-8 -82 -68 -155.5t-132 -73.5q61 54 65 135q-36 6 -57 34.5t-15 63.5z" />
<glyph unicode="&#x201a;" horiz-adv-x="434" d="M72 -201q55 24 81 70.5t27 130.5h-94v209h195v-166q0 -133 -31 -193q-44 -80 -135 -120z" />
<glyph unicode="&#x201c;" horiz-adv-x="641" d="M104 1165q8 82 68.5 156t132.5 74q-88 -69 -65 -135q35 -6 56 -35t15 -64q-4 -41 -38 -68.5t-76 -27.5q-44 0 -70 28.5t-23 71.5zM330 1165q8 82 68 156t132 74q-88 -88 -65 -135q35 -6 56.5 -35t15.5 -64q-4 -40 -38.5 -68t-76.5 -28q-44 0 -69.5 28.5t-22.5 71.5z" />
<glyph unicode="&#x201d;" horiz-adv-x="641" d="M104 1298q4 41 38.5 69t76.5 28q44 0 69.5 -29t22.5 -72q-8 -82 -68 -155.5t-132 -73.5q74 59 65 135q-36 6 -57 34.5t-15 63.5zM330 1298q4 41 38 69t76 28q44 0 70 -29t23 -72q-8 -82 -68.5 -155.5t-132.5 -73.5q81 65 65 135q-35 6 -56 34.5t-15 63.5z" />
<glyph unicode="&#x201e;" horiz-adv-x="743" d="M72 -201q55 24 81 70.5t27 130.5h-94v209h195v-166q0 -133 -31 -193q-44 -80 -135 -120zM381 -201q54 23 80.5 70t30.5 131h-95v209h193v-166q0 -133 -31 -193q-43 -79 -133 -120z" />
<glyph unicode="&#x2022;" horiz-adv-x="733" d="M72 719q0 105 73 178q77 74 181 74t178 -74q76 -73 76 -178q0 -107 -76 -180q-74 -74 -178 -74t-181 74q-73 73 -73 180z" />
<glyph unicode="&#x2026;" horiz-adv-x="1796" d="M72 0v205h204v-205h-204zM754 0v205h204v-205h-204zM1436 0v205h206v-205h-206z" />
<glyph unicode="&#x202f;" horiz-adv-x="343" />
<glyph unicode="&#x2039;" horiz-adv-x="688" d="M72 526l315 457h148l-265 -457l265 -454h-148z" />
<glyph unicode="&#x203a;" d="M72 72l264 458l-264 453h149l303 -446l-303 -465h-149z" />
<glyph unicode="&#x205f;" horiz-adv-x="429" />
<glyph unicode="&#x20ac;" horiz-adv-x="1208" d="M0 528v109h154q0 13 -1 32t-1 33h-146v109h154q39 256 213.5 419t419.5 163q142 0 218 -30.5t83 -70.5q12 -99 12 -194q0 -17 -38 -20t-42 14q-9 40 -19 68.5t-29 60t-44 50.5t-64.5 31.5t-91.5 12.5q-115 0 -210.5 -69t-153 -182t-76.5 -253h278v-109h-284q0 -10 -1 -37 t1 -28h278v-109h-266q32 -204 143 -327t287 -123q116 0 201 65v-125q-77 -18 -209 -18q-246 0 -403.5 144t-198.5 384h-164z" />
<glyph unicode="&#x2122;" horiz-adv-x="1636" d="M72 1280v109h602v-109h-240v-629h-123v629h-239zM756 651v738h182l186 -590l181 590h178v-738h-113v619l-190 -619h-113l-197 629v-629h-114z" />
<glyph unicode="&#xe000;" horiz-adv-x="808" d="M0 0v809h809v-809h-809z" />
</font>
</defs>
</svg>
